<?xml version="1.0" encoding="UTF-8"?>
<!DOCTYPE svg PUBLIC "-//W3C//DTD SVG 1.1//EN" "http://www.w3.org/Graphics/SVG/1.1/DTD/svg11.dtd">
<svg xmlns="http://www.w3.org/2000/svg" version="1.1" width="703px" height="669px" style="shape-rendering:geometricPrecision; text-rendering:geometricPrecision; image-rendering:optimizeQuality; fill-rule:evenodd; clip-rule:evenodd" xmlns:xlink="http://www.w3.org/1999/xlink">
<g><path style="opacity:1" fill="#8d0520" d="M 356.5,47.5 C 359.938,49.7589 363.271,52.2589 366.5,55C 369.818,55.8792 373.152,56.7125 376.5,57.5C 378.29,64.4292 377.29,70.9292 373.5,77C 371.043,78.5621 368.376,79.5621 365.5,80C 332.163,78.0192 300.83,84.6859 271.5,100C 253.597,110.626 235.597,121.293 217.5,132C 197.715,148.951 179.048,167.118 161.5,186.5C 144.282,207.958 133.115,232.292 128,259.5C 125.667,282.833 123.333,306.167 121,329.5C 118.943,335.281 116.61,340.947 114,346.5C 114.794,362.234 116.127,377.9 118,393.5C 116.201,393.721 114.368,394.054 112.5,394.5C 111.191,397.751 111.858,400.585 114.5,403C 116.464,403.624 118.131,403.124 119.5,401.5C 120.086,401.709 120.586,402.043 121,402.5C 125.629,412.978 129.962,423.645 134,434.5C 135.859,438.712 138.192,442.712 141,446.5C 152.027,459.358 163.527,471.691 175.5,483.5C 179.102,488.937 183.602,493.604 189,497.5C 189.5,484.504 189.667,471.504 189.5,458.5C 190.791,458.737 191.791,458.404 192.5,457.5C 194.17,457.249 195.67,456.582 197,455.5C 198.318,452.523 199.818,449.69 201.5,447C 204.711,445.847 208.044,445.18 211.5,445C 212.571,444.148 213.571,443.315 214.5,442.5C 215.117,440.771 216.117,439.271 217.5,438C 220.417,436.472 223.417,435.139 226.5,434C 230.121,434.405 233.787,434.405 237.5,434C 239.488,431.028 240.988,427.861 242,424.5C 243.78,423.361 245.614,422.361 247.5,421.5C 248.167,421.5 248.833,421.5 249.5,421.5C 248.559,426.07 248.226,430.737 248.5,435.5C 247.253,455.989 246.586,476.656 246.5,497.5C 242.029,496.911 238.029,497.577 234.5,499.5C 220.829,499.333 207.163,499.5 193.5,500C 203.897,510.2 214.564,520.033 225.5,529.5C 224.185,530.895 224.519,531.895 226.5,532.5C 223.98,534.969 220.98,536.803 217.5,538C 216.035,539.774 214.702,541.608 213.5,543.5C 204.3,546.1 196.3,550.767 189.5,557.5C 193.843,559.381 197.176,558.214 199.5,554C 202.952,553.108 205.952,551.442 208.5,549C 211.688,548.245 214.855,547.411 218,546.5C 219.52,545.303 220.687,543.803 221.5,542C 224.5,541.667 227.5,541.333 230.5,541C 231.252,540.329 231.586,539.496 231.5,538.5C 233.355,540.693 235.689,542.026 238.5,542.5C 243.203,541.96 247.37,540.293 251,537.5C 251.334,539.847 251.167,542.181 250.5,544.5C 249.691,545.469 248.691,546.302 247.5,547C 256.213,551.846 265.213,556.013 274.5,559.5C 275.058,560.79 276.058,561.623 277.5,562C 306.951,564.661 336.118,569.161 365,575.5C 377.018,572.735 389.184,570.902 401.5,570C 404.402,569.081 404.735,568.248 402.5,567.5C 404.807,564.362 407.641,561.695 411,559.5C 410.816,556.124 411.983,553.457 414.5,551.5C 413.233,549.629 413.233,547.796 414.5,546C 415.167,545.333 415.833,545.333 416.5,546C 418.667,548.833 420.833,551.667 423,554.5C 424.715,551.603 427.215,550.269 430.5,550.5C 429.737,546.862 431.07,545.362 434.5,546C 435.126,546.75 435.626,547.584 436,548.5C 439.162,542.253 443.995,540.753 450.5,544C 451.103,545.825 451.77,547.659 452.5,549.5C 454.917,546.917 457.751,544.917 461,543.5C 463.419,546.085 466.252,548.085 469.5,549.5C 471.828,548.67 474.162,547.837 476.5,547C 496.152,533.355 515.818,519.688 535.5,506C 551.625,492.867 568.292,480.533 585.5,469C 588.226,468.818 590.893,468.318 593.5,467.5C 595.916,464.337 598.082,461.004 600,457.5C 600.671,456.748 601.504,456.414 602.5,456.5C 606.831,452.337 611.331,448.337 616,444.5C 614.99,449.519 613.49,454.519 611.5,459.5C 604.22,479.059 594.553,497.393 582.5,514.5C 575.837,522.994 569.004,531.327 562,539.5C 562.906,547.225 559.739,552.058 552.5,554C 548.236,553.984 544.236,554.817 540.5,556.5C 539.833,558.833 539.167,561.167 538.5,563.5C 532.293,560.234 526.126,560.567 520,564.5C 519.333,565.167 519.333,565.833 520,566.5C 525.782,570.731 528.282,576.397 527.5,583.5C 525.692,583.509 524.025,583.009 522.5,582C 521.042,579.54 519.209,577.373 517,575.5C 515.581,576.46 514.081,577.293 512.5,578C 505.013,585.321 497.679,592.821 490.5,600.5C 489.508,604.783 489.174,609.116 489.5,613.5C 475.827,609.642 469.827,614.642 471.5,628.5C 469.692,628.509 468.025,628.009 466.5,627C 463.833,624.333 461.167,621.667 458.5,619C 449.744,618.398 441.577,620.232 434,624.5C 433.749,626.433 433.249,628.266 432.5,630C 427.051,631.393 422.384,630.226 418.5,626.5C 419.738,626.19 419.738,625.69 418.5,625C 409.109,619.619 399.109,618.119 388.5,620.5C 370.095,615.962 351.429,614.462 332.5,616C 328.044,615.898 324.044,616.732 320.5,618.5C 313.466,618.839 306.466,619.506 299.5,620.5C 299.808,618.076 299.474,615.743 298.5,613.5C 296.902,614.485 295.235,614.651 293.5,614C 278.912,604.916 263.912,596.583 248.5,589C 238.816,589.036 229.816,586.869 221.5,582.5C 215.613,577.803 209.28,573.637 202.5,570C 200,569.833 197.5,569.667 195,569.5C 192.071,569.525 189.571,570.191 187.5,571.5C 184.721,571.721 182.054,571.388 179.5,570.5C 175.054,568.114 170.388,565.947 165.5,564C 163.295,561.46 160.795,559.293 158,557.5C 156.167,555 154.333,552.5 152.5,550C 151.906,549.536 151.239,549.369 150.5,549.5C 145.756,539.77 142.256,529.436 140,518.5C 137.767,515.213 134.767,512.879 131,511.5C 119.889,480.941 107.389,450.941 93.5,421.5C 94.1239,421.083 94.4573,420.416 94.5,419.5C 91.0259,409.843 89.6925,399.843 90.5,389.5C 92.7224,389.822 94.5557,389.155 96,387.5C 96.8673,383.044 96.5339,378.711 95,374.5C 94.6012,374.728 94.4346,375.062 94.5,375.5C 89.7873,355.407 82.2873,336.407 72,318.5C 73.4293,292.777 77.4293,267.444 84,242.5C 85.6122,239.141 87.1122,235.808 88.5,232.5C 88.281,233.675 88.6143,234.675 89.5,235.5C 91.8662,229.102 95.0329,223.102 99,217.5C 107.953,207.379 117.453,197.713 127.5,188.5C 131.432,183.393 135.599,178.393 140,173.5C 142.367,166.681 145.034,160.014 148,153.5C 164.17,137.33 180.67,121.497 197.5,106C 199.596,104.234 201.929,102.901 204.5,102C 211.19,101.286 217.856,101.452 224.5,102.5C 226.577,102.308 228.577,101.808 230.5,101C 238.825,82.7335 253.158,74.4002 273.5,76C 277.766,72.3813 281.766,68.5479 285.5,64.5C 285.351,65.552 285.517,66.552 286,67.5C 288.331,63.9713 291.497,61.9713 295.5,61.5C 295.176,65.5546 295.509,69.5546 296.5,73.5C 306.686,66.0743 317.686,60.2409 329.5,56C 336.231,53.8674 342.898,51.534 349.5,49C 351.568,48.3131 353.568,48.4798 355.5,49.5C 356.298,49.0431 356.631,48.3764 356.5,47.5 Z M 111.5,422.5 C 110.711,422.217 110.044,421.717 109.5,421C 110.816,420.472 111.483,420.972 111.5,422.5 Z M 121.5,426.5 C 124.005,428.186 124.838,430.519 124,433.5C 122.097,431.559 121.264,429.226 121.5,426.5 Z M 443.5,468.5 C 438.549,469.557 434.383,472.224 431,476.5C 428.747,480.08 426.913,483.747 425.5,487.5C 425.167,487.167 424.833,486.833 424.5,486.5C 425.213,484.224 425.713,481.891 426,479.5C 429.015,476.122 431.515,472.456 433.5,468.5C 439.77,465.753 445.103,461.587 449.5,456C 452.491,454.477 455.491,453.977 458.5,454.5C 456.075,462.096 451.075,466.763 443.5,468.5 Z"/></g>
<g><path style="opacity:0.569" fill="#9b2339" d="M 356.5,47.5 C 356.631,48.3764 356.298,49.0431 355.5,49.5C 353.568,48.4798 351.568,48.3131 349.5,49C 342.898,51.534 336.231,53.8674 329.5,56C 317.686,60.2409 306.686,66.0743 296.5,73.5C 295.509,69.5546 295.176,65.5546 295.5,61.5C 291.497,61.9713 288.331,63.9713 286,67.5C 285.517,66.552 285.351,65.552 285.5,64.5C 294.555,56.4294 298.555,58.4294 297.5,70.5C 308.6,63.5751 320.267,57.7417 332.5,53C 337.977,51.3963 343.311,49.3963 348.5,47C 351.367,46.1993 354.034,46.3659 356.5,47.5 Z"/></g>
<g><path style="opacity:1" fill="#8d0420" d="M 445.5,64.5 C 494.507,65.2713 534.841,84.2713 566.5,121.5C 582.594,148.029 598.927,174.362 615.5,200.5C 615.196,201.15 614.863,201.817 614.5,202.5C 616.214,206.166 618.38,209.5 621,212.5C 626.012,238.579 628.845,264.912 629.5,291.5C 630.748,290.96 631.915,290.293 633,289.5C 634.421,286.991 636.088,284.657 638,282.5C 638.167,283.167 638.333,283.833 638.5,284.5C 633.715,300.483 630.548,316.816 629,333.5C 627.872,330.353 627.372,327.02 627.5,323.5C 628.056,315.236 629.056,307.069 630.5,299C 628.522,299.033 627.522,300.2 627.5,302.5C 625.064,304.017 622.898,303.684 621,301.5C 620,298.167 619,294.833 618,291.5C 606.508,282.173 598.341,270.506 593.5,256.5C 594.708,252.211 595.708,247.878 596.5,243.5C 595.843,239.029 594.676,234.695 593,230.5C 587.03,225.698 581.53,220.364 576.5,214.5C 575.021,210.198 573.521,205.865 572,201.5C 571.674,197.47 571.674,193.47 572,189.5C 570.887,188.289 569.72,188.289 568.5,189.5C 567.735,188.388 566.735,187.721 565.5,187.5C 565.5,183.833 565.5,180.167 565.5,176.5C 561.328,178.671 556.828,180.005 552,180.5C 549.747,180.369 547.581,179.869 545.5,179C 533.519,170.47 521.852,161.637 510.5,152.5C 509.766,151.292 509.433,149.959 509.5,148.5C 509.833,147.833 510.167,147.167 510.5,146.5C 512.163,144.562 512.829,142.228 512.5,139.5C 513.797,137.307 513.797,134.973 512.5,132.5C 511.614,133.325 511.281,134.325 511.5,135.5C 510.5,135.5 509.5,135.5 508.5,135.5C 508.149,129.738 508.649,124.072 510,118.5C 510.654,119.696 511.154,119.696 511.5,118.5C 510.492,113.867 510.492,109.2 511.5,104.5C 512.5,104.5 513.5,104.5 514.5,104.5C 514.337,106.857 514.503,109.19 515,111.5C 515.499,107.179 515.666,102.846 515.5,98.5C 514.167,98.5 512.833,98.5 511.5,98.5C 508.879,108.368 506.879,118.368 505.5,128.5C 504.596,129.209 504.263,130.209 504.5,131.5C 503.092,135.686 502.425,140.019 502.5,144.5C 502.44,145.043 502.107,145.376 501.5,145.5C 499.33,142.988 496.663,141.321 493.5,140.5C 476.99,130.078 460.324,119.912 443.5,110C 438.863,109.171 434.196,108.671 429.5,108.5C 428.833,107.5 428.167,106.5 427.5,105.5C 428.348,100.774 429.515,96.1076 431,91.5C 434.563,87.6171 435.73,83.1171 434.5,78C 433.216,77.3162 432.049,77.4829 431,78.5C 428.022,90.8049 424.522,102.805 420.5,114.5C 419.9,115.9 418.9,116.9 417.5,117.5C 418.213,113.533 419.38,109.866 421,106.5C 414.672,104.277 408.839,101.11 403.5,97C 400.278,94.0444 397.944,90.5444 396.5,86.5C 397.964,76.5476 403.798,71.881 414,72.5C 420.84,75.2013 426.34,73.7013 430.5,68C 434.689,67.6645 438.856,67.1645 443,66.5C 444.376,66.3158 445.209,65.6491 445.5,64.5 Z"/></g>
<g><path style="opacity:0.388" fill="#9f2f44" d="M 445.5,64.5 C 445.209,65.6491 444.376,66.3158 443,66.5C 438.856,67.1645 434.689,67.6645 430.5,68C 426.34,73.7013 420.84,75.2013 414,72.5C 403.798,71.881 397.964,76.5476 396.5,86.5C 396.747,74.5952 402.913,69.2618 415,70.5C 418.221,70.5413 421.388,70.8747 424.5,71.5C 426.707,68.7955 429.374,66.6288 432.5,65C 436.821,64.501 441.154,64.3343 445.5,64.5 Z"/></g>
<g><path style="opacity:0.835" fill="#aa6270" d="M 427.5,105.5 C 426.883,105.611 426.383,105.944 426,106.5C 424.822,113.316 423.322,119.982 421.5,126.5C 420.738,122.47 420.405,118.47 420.5,114.5C 424.522,102.805 428.022,90.8049 431,78.5C 432.049,77.4829 433.216,77.3162 434.5,78C 435.73,83.1171 434.563,87.6171 431,91.5C 429.515,96.1076 428.348,100.774 427.5,105.5 Z"/></g>
<g><path style="opacity:0.886" fill="#98253a" d="M 512.5,139.5 C 511.952,136.916 510.285,135.916 507.5,136.5C 507.663,134.143 507.497,131.81 507,129.5C 506.617,128.944 506.117,128.611 505.5,128.5C 506.879,118.368 508.879,108.368 511.5,98.5C 512.833,98.5 514.167,98.5 515.5,98.5C 515.666,102.846 515.499,107.179 515,111.5C 514.503,109.19 514.337,106.857 514.5,104.5C 513.5,104.5 512.5,104.5 511.5,104.5C 510.492,109.2 510.492,113.867 511.5,118.5C 511.154,119.696 510.654,119.696 510,118.5C 508.649,124.072 508.149,129.738 508.5,135.5C 509.5,135.5 510.5,135.5 511.5,135.5C 511.281,134.325 511.614,133.325 512.5,132.5C 513.797,134.973 513.797,137.307 512.5,139.5 Z"/></g>
<g><path style="opacity:0.196" fill="#9f283f" d="M 427.5,105.5 C 428.167,106.5 428.833,107.5 429.5,108.5C 427.823,111.092 426.657,114.092 426,117.5C 425.667,120.167 425.333,122.833 425,125.5C 424.8,127.32 423.966,128.653 422.5,129.5C 421.596,128.791 421.263,127.791 421.5,126.5C 423.322,119.982 424.822,113.316 426,106.5C 426.383,105.944 426.883,105.611 427.5,105.5 Z"/></g>
<g><path style="opacity:0.235" fill="#a64b5c" d="M 321.5,123.5 C 321.335,120.15 321.502,116.817 322,113.5C 325.068,109.543 327.402,105.209 329,100.5C 329.808,98.4213 329.641,96.4213 328.5,94.5C 327.914,94.7093 327.414,95.0426 327,95.5C 322.148,109.677 316.981,123.677 311.5,137.5C 310.188,139.479 308.521,141.145 306.5,142.5C 305.832,144.969 305.165,147.302 304.5,149.5C 304.5,146.833 304.5,144.167 304.5,141.5C 306.772,139.39 308.939,137.056 311,134.5C 315.589,124.401 319.589,114.068 323,103.5C 323.988,100.576 324.654,97.5755 325,94.5C 326.444,92.8446 328.278,92.178 330.5,92.5C 330.665,100.188 328.498,107.188 324,113.5C 323.115,116.952 322.282,120.286 321.5,123.5 Z"/></g>
<g><path style="opacity:1" fill="#ba929a" d="M 321.5,123.5 C 318.276,128.972 316.11,134.972 315,141.5C 313.989,142.337 312.822,142.67 311.5,142.5C 312.494,140.666 312.494,138.999 311.5,137.5C 316.981,123.677 322.148,109.677 327,95.5C 327.414,95.0426 327.914,94.7093 328.5,94.5C 329.641,96.4213 329.808,98.4213 329,100.5C 327.402,105.209 325.068,109.543 322,113.5C 321.502,116.817 321.335,120.15 321.5,123.5 Z"/></g>
<g><path style="opacity:1" fill="#322225" d="M 504.5,131.5 C 505.693,131.97 506.36,132.97 506.5,134.5C 506.16,136.512 505.827,138.512 505.5,140.5C 504.833,141.833 504.167,143.167 503.5,144.5C 503.167,144.5 502.833,144.5 502.5,144.5C 502.425,140.019 503.092,135.686 504.5,131.5 Z"/></g>
<g><path style="opacity:0.906" fill="#a96774" d="M 505.5,128.5 C 506.117,128.611 506.617,128.944 507,129.5C 507.497,131.81 507.663,134.143 507.5,136.5C 510.285,135.916 511.952,136.916 512.5,139.5C 512.829,142.228 512.163,144.562 510.5,146.5C 510.833,144.5 511.167,142.5 511.5,140.5C 509.5,140.5 507.5,140.5 505.5,140.5C 505.827,138.512 506.16,136.512 506.5,134.5C 506.36,132.97 505.693,131.97 504.5,131.5C 504.263,130.209 504.596,129.209 505.5,128.5 Z"/></g>
<g><path style="opacity:0.204" fill="#a44d5d" d="M 321.5,123.5 C 318.114,136.35 314.614,149.35 311,162.5C 310.583,163.756 309.75,164.423 308.5,164.5C 307.127,164.657 305.793,164.49 304.5,164C 305.056,163.617 305.389,163.117 305.5,162.5C 306.393,157.321 307.226,151.988 308,146.5C 308.66,144.676 309.827,143.343 311.5,142.5C 312.822,142.67 313.989,142.337 315,141.5C 316.11,134.972 318.276,128.972 321.5,123.5 Z"/></g>
<g><path style="opacity:0.999" fill="#251d1f" d="M 311.5,137.5 C 312.494,138.999 312.494,140.666 311.5,142.5C 309.827,143.343 308.66,144.676 308,146.5C 307.226,151.988 306.393,157.321 305.5,162.5C 304.167,162.5 302.833,162.5 301.5,162.5C 301.872,165.022 301.039,167.022 299,168.5C 298.833,167.833 298.667,167.167 298.5,166.5C 301.444,161.214 303.444,155.547 304.5,149.5C 305.165,147.302 305.832,144.969 306.5,142.5C 308.521,141.145 310.188,139.479 311.5,137.5 Z"/></g>
<g><path style="opacity:0.275" fill="#7d2939" d="M 420.5,114.5 C 420.405,118.47 420.738,122.47 421.5,126.5C 421.263,127.791 421.596,128.791 422.5,129.5C 421.941,131.679 421.274,133.846 420.5,136C 421.536,139.121 421.703,142.287 421,145.5C 418.829,149.844 416.163,153.844 413,157.5C 412.098,159.927 411.264,162.26 410.5,164.5C 409.5,164.5 408.5,164.5 407.5,164.5C 408.038,162.883 408.371,161.216 408.5,159.5C 409.241,156.587 409.741,153.587 410,150.5C 412.392,147.772 414.392,144.772 416,141.5C 416.085,137.529 417.085,133.862 419,130.5C 419.667,127.5 419.667,124.5 419,121.5C 417.667,123.5 416.333,125.5 415,127.5C 414.667,130.167 414.333,132.833 414,135.5C 410.802,141.137 408.468,147.137 407,153.5C 403.268,157.062 399.768,160.729 396.5,164.5C 395.5,164.5 394.5,164.5 393.5,164.5C 397.125,160.038 400.958,155.705 405,151.5C 406.964,145.298 409.297,139.298 412,133.5C 412.954,127.912 414.787,122.579 417.5,117.5C 418.9,116.9 419.9,115.9 420.5,114.5 Z"/></g>
<g><path style="opacity:1" fill="#231d1f" d="M 502.5,146.5 C 501.417,150.085 500.751,153.751 500.5,157.5C 500.382,160.688 499.549,163.688 498,166.5C 494.317,169.187 490.983,172.187 488,175.5C 487.667,182.167 487.333,188.833 487,195.5C 486.047,197.455 484.713,199.122 483,200.5C 482.667,202.833 482.333,205.167 482,207.5C 479.234,212.456 477.234,217.789 476,223.5C 474.416,227.869 471.583,231.035 467.5,233C 464.296,235.869 461.463,239.035 459,242.5C 457.837,247.828 455.837,252.828 453,257.5C 452.319,261.929 451.319,266.263 450,270.5C 442.685,275.817 436.018,281.817 430,288.5C 427.4,293.967 425.4,299.634 424,305.5C 420.117,309.05 415.951,312.217 411.5,315C 410.833,316.333 410.167,317.667 409.5,319C 403.709,323.122 398.209,327.622 393,332.5C 391.866,341.296 390.533,349.962 389,358.5C 385.679,359.971 382.179,360.637 378.5,360.5C 378.666,366.842 378.5,373.175 378,379.5C 372.889,383.757 367.056,386.257 360.5,387C 358.833,388 357.5,389.333 356.5,391C 350.575,392.915 345.742,396.415 342,401.5C 341.667,402.833 341.333,404.167 341,405.5C 338.222,408.609 334.889,410.942 331,412.5C 329.746,416.77 328.746,421.104 328,425.5C 321.374,430.457 315.04,435.791 309,441.5C 306.645,450.281 304.478,458.948 302.5,467.5C 300.073,467.523 297.74,468.023 295.5,469C 291.719,472.206 288.385,475.872 285.5,480C 276.259,482.624 271.426,488.79 271,498.5C 267.012,502.943 262.845,506.943 258.5,510.5C 257.504,510.414 256.671,510.748 256,511.5C 254.287,515.873 251.787,519.707 248.5,523C 242.934,525.58 237.267,527.913 231.5,530C 230.953,530.925 230.287,531.758 229.5,532.5C 228.893,532.376 228.56,532.043 228.5,531.5C 228.511,529.983 229.177,528.816 230.5,528C 240.753,524.92 248.086,518.42 252.5,508.5C 254.139,507.678 255.805,507.011 257.5,506.5C 261.102,502.395 264.935,498.395 269,494.5C 269.283,484.873 274.116,478.706 283.5,476C 287.048,469.759 292.215,465.926 299,464.5C 299.792,460.921 301.125,457.588 303,454.5C 303.498,451.518 303.665,448.518 303.5,445.5C 304.06,443.199 304.56,440.866 305,438.5C 311.279,434.554 317.279,430.221 323,425.5C 325.86,421.685 327.193,417.352 327,412.5C 327.74,410.03 329.24,408.363 331.5,407.5C 335.44,402.436 339.44,397.269 343.5,392C 346.717,389.565 350.217,387.731 354,386.5C 354.49,385.207 354.657,383.873 354.5,382.5C 359.973,382.633 365.307,381.966 370.5,380.5C 372.965,373.087 374.132,365.42 374,357.5C 376.74,356.718 379.574,356.218 382.5,356C 383,355.5 383.5,355 384,354.5C 384.391,349.146 384.891,343.812 385.5,338.5C 387.534,335.052 389.2,331.386 390.5,327.5C 394.609,324.894 398.276,321.727 401.5,318C 405.143,317.189 407.477,315.022 408.5,311.5C 412.142,309.025 415.642,306.358 419,303.5C 420.735,297.348 423.068,291.348 426,285.5C 430.55,282.617 434.05,278.784 436.5,274C 439.971,272.095 443.304,269.928 446.5,267.5C 447.802,264.292 448.469,260.959 448.5,257.5C 450.569,252.83 451.902,247.83 452.5,242.5C 453.594,240.641 454.427,238.641 455,236.5C 457.043,234.792 458.71,232.792 460,230.5C 469.258,226.215 474.258,218.882 475,208.5C 477.875,205.458 479.208,201.791 479,197.5C 479.852,196.429 480.685,195.429 481.5,194.5C 482.315,193.571 483.148,192.571 484,191.5C 484.173,184.408 485.006,177.408 486.5,170.5C 489.464,169.192 491.797,167.192 493.5,164.5C 496.768,161.285 498.268,157.285 498,152.5C 499.764,150.611 501.264,148.611 502.5,146.5 Z"/></g>
<g><path style="opacity:0.125" fill="#9e5363" d="M 493.5,140.5 C 496.663,141.321 499.33,142.988 501.5,145.5C 502.107,145.376 502.44,145.043 502.5,144.5C 502.833,144.5 503.167,144.5 503.5,144.5C 503.672,145.492 503.338,146.158 502.5,146.5C 501.264,148.611 499.764,150.611 498,152.5C 498.268,157.285 496.768,161.285 493.5,164.5C 492.833,164.5 492.167,164.5 491.5,164.5C 493.887,160.506 495.387,156.172 496,151.5C 496.972,149.695 498.139,148.028 499.5,146.5C 497.467,144.493 495.467,142.493 493.5,140.5 Z"/></g>
<g><path style="opacity:1" fill="#b79aa0" d="M 505.5,140.5 C 507.5,140.5 509.5,140.5 511.5,140.5C 511.167,142.5 510.833,144.5 510.5,146.5C 510.167,147.167 509.833,147.833 509.5,148.5C 508.85,148.804 508.183,149.137 507.5,149.5C 506.277,156.449 505.444,163.449 505,170.5C 502.72,174.447 500.053,178.113 497,181.5C 495.699,187.951 494.532,194.451 493.5,201C 493.917,203.498 494.251,205.998 494.5,208.5C 493.153,211.193 491.82,213.86 490.5,216.5C 489.363,215.211 488.03,214.211 486.5,213.5C 487.277,208.916 487.777,204.25 488,199.5C 491.333,189.5 494.667,179.5 498,169.5C 499.247,166.671 500.747,164.005 502.5,161.5C 502.332,159.829 501.665,158.496 500.5,157.5C 500.751,153.751 501.417,150.085 502.5,146.5C 503.338,146.158 503.672,145.492 503.5,144.5C 504.167,143.167 504.833,141.833 505.5,140.5 Z"/></g>
<g><path style="opacity:0.22" fill="#541e30" d="M 393.5,164.5 C 394.5,164.5 395.5,164.5 396.5,164.5C 393.104,168.565 391.104,173.231 390.5,178.5C 384.729,179.113 379.396,178.446 374.5,176.5C 378.884,176.826 383.217,176.492 387.5,175.5C 389.258,171.646 391.258,167.979 393.5,164.5 Z"/></g>
<g><path style="opacity:1" fill="#534f51" d="M 408.5,159.5 C 408.371,161.216 408.038,162.883 407.5,164.5C 406.85,164.804 406.183,165.137 405.5,165.5C 404.686,167.766 404.186,170.1 404,172.5C 402.558,174.391 401.391,176.391 400.5,178.5C 398.5,180.167 396.5,181.833 394.5,183.5C 395.277,173.355 399.944,165.355 408.5,159.5 Z"/></g>
<g><path style="opacity:0.166" fill="#8f2b3d" d="M 304.5,141.5 C 304.5,144.167 304.5,146.833 304.5,149.5C 303.444,155.547 301.444,161.214 298.5,166.5C 298.667,167.167 298.833,167.833 299,168.5C 301.039,167.022 301.872,165.022 301.5,162.5C 302.833,162.5 304.167,162.5 305.5,162.5C 305.389,163.117 305.056,163.617 304.5,164C 305.793,164.49 307.127,164.657 308.5,164.5C 306.645,165.69 304.812,167.023 303,168.5C 302.697,170.888 301.863,173.055 300.5,175C 300.833,175.333 301.167,175.667 301.5,176C 325.831,176.5 350.164,176.667 374.5,176.5C 379.396,178.446 384.729,179.113 390.5,178.5C 391.833,180.833 391.833,183.167 390.5,185.5C 390.5,183.5 390.5,181.5 390.5,179.5C 360.831,179.333 331.165,179.5 301.5,180C 299.267,184.545 297.933,189.379 297.5,194.5C 294.591,197.344 291.924,200.344 289.5,203.5C 290.029,198.178 290.529,192.844 291,187.5C 291.662,186.016 292.496,184.683 293.5,183.5C 296.758,180.631 298.091,176.964 297.5,172.5C 294.476,174.003 291.81,176.17 289.5,179C 287.753,179.352 286.086,179.852 284.5,180.5C 261.67,179.668 238.67,179.168 215.5,179C 229.496,178.5 243.496,178.333 257.5,178.5C 265.903,179.134 273.903,178.467 281.5,176.5C 284.187,176.664 286.854,176.497 289.5,176C 291,174.167 292.5,172.333 294,170.5C 298.128,161.529 301.128,152.196 303,142.5C 303.383,141.944 303.883,141.611 304.5,141.5 Z"/></g>
<g><path style="opacity:1" fill="#221b1d" d="M 293.5,183.5 C 291.394,183.679 289.728,184.679 288.5,186.5C 286.131,192.129 283.298,197.463 280,202.5C 279.506,204.134 279.34,205.801 279.5,207.5C 279.291,208.922 278.791,210.255 278,211.5C 274.997,214.067 272.164,216.734 269.5,219.5C 265.916,221.739 262.583,224.406 259.5,227.5C 255.894,228.608 252.394,229.941 249,231.5C 248.333,233.5 248.333,235.5 249,237.5C 251.064,239.243 251.564,241.243 250.5,243.5C 247.55,245.115 244.884,247.115 242.5,249.5C 234.7,251.32 228.2,255.32 223,261.5C 222.667,269.167 222.333,276.833 222,284.5C 219.416,286.576 217.749,289.243 217,292.5C 211.645,296.354 207.145,301.021 203.5,306.5C 199.493,307.664 195.993,309.664 193,312.5C 192.667,313.833 192.333,315.167 192,316.5C 188.229,320.431 185.062,324.764 182.5,329.5C 178.168,329.965 176.501,332.131 177.5,336C 176.403,338.059 175.07,338.559 173.5,337.5C 173.998,334.513 174.498,331.513 175,328.5C 176.973,327.36 178.807,326.027 180.5,324.5C 182.177,321.147 184.343,318.147 187,315.5C 187.101,310.533 189.267,307.2 193.5,305.5C 196.052,304.307 198.552,302.973 201,301.5C 202.911,295.921 206.577,291.921 212,289.5C 213.349,285.467 215.682,282.134 219,279.5C 218.554,274.651 218.721,269.818 219.5,265C 218.742,262.908 217.575,261.075 216,259.5C 215.333,258.5 215.333,257.5 216,256.5C 221.17,250.239 227.67,246.406 235.5,245C 238.012,241.995 241.012,239.495 244.5,237.5C 244.833,236.833 245.167,236.167 245.5,235.5C 243.779,232.092 243.112,228.425 243.5,224.5C 248.287,225.03 252.62,223.863 256.5,221C 261.698,215.467 267.198,210.3 273,205.5C 273.333,202.5 273.667,199.5 274,196.5C 278.011,194.826 280.011,191.826 280,187.5C 281.049,184.813 282.549,182.48 284.5,180.5C 286.086,179.852 287.753,179.352 289.5,179C 291.81,176.17 294.476,174.003 297.5,172.5C 298.091,176.964 296.758,180.631 293.5,183.5 Z"/></g>
<g><path style="opacity:0.278" fill="#9e1646" d="M 219.5,176.5 C 240.167,176.5 260.833,176.5 281.5,176.5C 273.903,178.467 265.903,179.134 257.5,178.5C 244.833,177.833 232.167,177.167 219.5,176.5 Z"/></g>
<g><path style="opacity:0.28" fill="#8e2537" d="M 407.5,164.5 C 408.5,164.5 409.5,164.5 410.5,164.5C 409.298,168.502 407.631,172.336 405.5,176C 418.833,176.333 432.167,176.667 445.5,177C 453.471,177.743 461.138,179.577 468.5,182.5C 468.5,183.167 468.5,183.833 468.5,184.5C 461.866,181.539 454.866,180.039 447.5,180C 433.5,179.333 419.5,179.333 405.5,180C 404.016,180.662 402.683,181.496 401.5,182.5C 401.167,181.167 400.833,179.833 400.5,178.5C 401.391,176.391 402.558,174.391 404,172.5C 404.186,170.1 404.686,167.766 405.5,165.5C 406.183,165.137 406.85,164.804 407.5,164.5 Z"/></g>
<g><path style="opacity:1" fill="#8c031f" d="M 219.5,176.5 C 232.167,177.167 244.833,177.833 257.5,178.5C 243.496,178.333 229.496,178.5 215.5,179C 238.67,179.168 261.67,179.668 284.5,180.5C 282.549,182.48 281.049,184.813 280,187.5C 280.011,191.826 278.011,194.826 274,196.5C 273.667,199.5 273.333,202.5 273,205.5C 267.198,210.3 261.698,215.467 256.5,221C 252.62,223.863 248.287,225.03 243.5,224.5C 243.112,228.425 243.779,232.092 245.5,235.5C 245.167,236.167 244.833,236.833 244.5,237.5C 241.012,239.495 238.012,241.995 235.5,245C 227.67,246.406 221.17,250.239 216,256.5C 215.333,257.5 215.333,258.5 216,259.5C 217.575,261.075 218.742,262.908 219.5,265C 218.721,269.818 218.554,274.651 219,279.5C 215.682,282.134 213.349,285.467 212,289.5C 206.577,291.921 202.911,295.921 201,301.5C 198.552,302.973 196.052,304.307 193.5,305.5C 191.5,305.167 189.5,304.833 187.5,304.5C 188.117,270.443 188.617,236.11 189,201.5C 193.283,186.055 203.45,177.722 219.5,176.5 Z"/></g>
<g><path style="opacity:1" fill="#8c021f" d="M 390.5,185.5 C 389.22,186.931 387.553,187.598 385.5,187.5C 385.865,197.617 381.532,204.784 372.5,209C 367.132,212.903 363.632,218.07 362,224.5C 360,226.5 358,228.5 356,230.5C 355.505,232.473 355.338,234.473 355.5,236.5C 346.318,236.173 337.318,236.507 328.5,237.5C 312.833,237.5 297.167,237.5 281.5,237.5C 278.316,235.586 274.649,234.92 270.5,235.5C 270.369,234.624 270.702,233.957 271.5,233.5C 281.302,230.015 285.969,223.015 285.5,212.5C 288.644,210.342 289.977,207.342 289.5,203.5C 291.924,200.344 294.591,197.344 297.5,194.5C 297.933,189.379 299.267,184.545 301.5,180C 331.165,179.5 360.831,179.333 390.5,179.5C 390.5,181.5 390.5,183.5 390.5,185.5 Z"/></g>
<g><path style="opacity:1" fill="#8c031f" d="M 468.5,184.5 C 471.681,186.412 475.015,188.245 478.5,190C 480.141,191.129 481.141,192.629 481.5,194.5C 480.685,195.429 479.852,196.429 479,197.5C 479.208,201.791 477.875,205.458 475,208.5C 474.258,218.882 469.258,226.215 460,230.5C 458.71,232.792 457.043,234.792 455,236.5C 454.427,238.641 453.594,240.641 452.5,242.5C 450.416,240.923 448.416,239.09 446.5,237C 444.613,236.22 442.946,236.387 441.5,237.5C 427.167,237.5 412.833,237.5 398.5,237.5C 392.167,236.833 385.833,236.167 379.5,235.5C 382.661,226.346 387.661,218.346 394.5,211.5C 395.415,204.167 395.582,196.834 395,189.5C 397.372,187.297 399.539,184.963 401.5,182.5C 402.683,181.496 404.016,180.662 405.5,180C 419.5,179.333 433.5,179.333 447.5,180C 454.866,180.039 461.866,181.539 468.5,184.5 Z"/></g>
<g><path style="opacity:1" fill="#ac8990" d="M 400.5,178.5 C 400.833,179.833 401.167,181.167 401.5,182.5C 399.539,184.963 397.372,187.297 395,189.5C 395.582,196.834 395.415,204.167 394.5,211.5C 387.661,218.346 382.661,226.346 379.5,235.5C 379.167,235.5 378.833,235.5 378.5,235.5C 379.01,232.612 378.344,230.279 376.5,228.5C 381.786,223.602 385.286,217.602 387,210.5C 388.093,208.651 389.426,206.984 391,205.5C 391.005,200.853 390.838,196.186 390.5,191.5C 391.343,189.513 392.01,187.346 392.5,185C 392.836,183.97 393.503,183.47 394.5,183.5C 396.5,181.833 398.5,180.167 400.5,178.5 Z"/></g>
<g><path style="opacity:1" fill="#211c1e" d="M 408.5,159.5 C 399.944,165.355 395.277,173.355 394.5,183.5C 393.503,183.47 392.836,183.97 392.5,185C 392.01,187.346 391.343,189.513 390.5,191.5C 390.405,197.928 388.572,203.928 385,209.5C 380.979,211.677 377.312,214.344 374,217.5C 370.986,223.508 366.986,228.841 362,233.5C 360.667,236.833 359.333,240.167 358,243.5C 348.507,249.325 341.507,257.325 337,267.5C 337.998,273.868 337.665,280.201 336,286.5C 332.17,287.601 329.004,289.768 326.5,293C 322.049,293.13 317.716,293.796 313.5,295C 310.13,298.035 307.13,301.368 304.5,305C 301.666,305.045 299.166,305.879 297,307.5C 294.7,311.268 292.533,315.102 290.5,319C 292.144,322.359 292.644,325.859 292,329.5C 288.054,333.445 283.554,336.611 278.5,339C 274.504,341.827 272.17,345.66 271.5,350.5C 268.63,353.885 265.13,356.219 261,357.5C 262.813,363.232 263.48,369.232 263,375.5C 257.266,379.704 254.932,385.371 256,392.5C 250.269,395.224 244.769,398.391 239.5,402C 236.044,402.18 232.711,402.847 229.5,404C 227.549,405.734 226.549,407.901 226.5,410.5C 217.773,411.727 212.94,416.727 212,425.5C 209,427.833 206,430.167 203,432.5C 202.495,434.518 201.995,436.518 201.5,438.5C 198.318,440.193 196.652,442.859 196.5,446.5C 194.627,449.449 191.961,451.449 188.5,452.5C 187.957,452.44 187.624,452.107 187.5,451.5C 188.372,449.55 189.039,447.55 189.5,445.5C 190.404,444.791 190.737,443.791 190.5,442.5C 190.557,441.391 190.89,440.391 191.5,439.5C 194.123,436.699 195.623,433.365 196,429.5C 198.659,425.764 202.159,423.431 206.5,422.5C 207.39,413.778 212.057,408.278 220.5,406C 222.498,400.478 226.498,397.811 232.5,398C 239.14,394.097 245.974,390.597 253,387.5C 253.333,384.167 253.667,380.833 254,377.5C 254.615,375.884 255.615,374.551 257,373.5C 257.49,372.207 257.657,370.873 257.5,369.5C 257.5,367.833 257.5,366.167 257.5,364.5C 256.488,360.13 256.488,355.797 257.5,351.5C 259.199,351.66 260.866,351.494 262.5,351C 266.558,347.352 269.392,342.852 271,337.5C 278.979,334.348 284.812,329.015 288.5,321.5C 288.069,319.246 287.403,317.079 286.5,315C 287.494,311.178 289.161,307.678 291.5,304.5C 294.712,302.802 298.046,301.302 301.5,300C 305.939,292.231 312.605,288.898 321.5,290C 322.618,288.926 323.618,287.76 324.5,286.5C 331.54,285.257 334.54,281.09 333.5,274C 333.125,270.468 332.958,266.968 333,263.5C 336.482,256.054 341.315,249.554 347.5,244C 351.344,242.653 354.011,240.153 355.5,236.5C 355.338,234.473 355.505,232.473 356,230.5C 358,228.5 360,226.5 362,224.5C 363.632,218.07 367.132,212.903 372.5,209C 381.532,204.784 385.865,197.617 385.5,187.5C 387.553,187.598 389.22,186.931 390.5,185.5C 391.833,183.167 391.833,180.833 390.5,178.5C 391.104,173.231 393.104,168.565 396.5,164.5C 399.768,160.729 403.268,157.062 407,153.5C 408.468,147.137 410.802,141.137 414,135.5C 414.333,132.833 414.667,130.167 415,127.5C 416.333,125.5 417.667,123.5 419,121.5C 419.667,124.5 419.667,127.5 419,130.5C 417.085,133.862 416.085,137.529 416,141.5C 414.392,144.772 412.392,147.772 410,150.5C 409.741,153.587 409.241,156.587 408.5,159.5 Z"/></g>
<g><path style="opacity:0.212" fill="#712533" d="M 491.5,164.5 C 492.167,164.5 492.833,164.5 493.5,164.5C 491.797,167.192 489.464,169.192 486.5,170.5C 485.006,177.408 484.173,184.408 484,191.5C 483.148,192.571 482.315,193.571 481.5,194.5C 481.141,192.629 480.141,191.129 478.5,190C 475.015,188.245 471.681,186.412 468.5,184.5C 468.5,183.833 468.5,183.167 468.5,182.5C 471.98,184.05 475.314,185.884 478.5,188C 481.176,188.617 481.843,187.784 480.5,185.5C 481.773,180.2 482.939,174.867 484,169.5C 486.371,167.627 488.871,165.961 491.5,164.5 Z"/></g>
<g><path style="opacity:1" fill="#544c50" d="M 293.5,183.5 C 292.496,184.683 291.662,186.016 291,187.5C 290.529,192.844 290.029,198.178 289.5,203.5C 285.763,203.929 282.43,205.262 279.5,207.5C 279.34,205.801 279.506,204.134 280,202.5C 283.298,197.463 286.131,192.129 288.5,186.5C 289.728,184.679 291.394,183.679 293.5,183.5 Z"/></g>
<g><path style="opacity:0.161" fill="#993f4f" d="M 509.5,148.5 C 509.433,149.959 509.766,151.292 510.5,152.5C 509.275,153.152 508.608,154.319 508.5,156C 509.638,166.525 506.471,175.359 499,182.5C 497.628,188.286 496.461,194.119 495.5,200C 496.481,204.142 498.147,207.976 500.5,211.5C 498.5,210.5 496.5,209.5 494.5,208.5C 494.251,205.998 493.917,203.498 493.5,201C 494.532,194.451 495.699,187.951 497,181.5C 500.053,178.113 502.72,174.447 505,170.5C 505.444,163.449 506.277,156.449 507.5,149.5C 508.183,149.137 508.85,148.804 509.5,148.5 Z"/></g>
<g><path style="opacity:0.536" fill="#9d2d42" d="M 565.5,187.5 C 566.735,187.721 567.735,188.388 568.5,189.5C 569.72,188.289 570.887,188.289 572,189.5C 571.674,193.47 571.674,197.47 572,201.5C 573.521,205.865 575.021,210.198 576.5,214.5C 573.842,211.194 571.676,207.527 570,203.5C 570.121,212.183 570.955,220.849 572.5,229.5C 571.245,233.937 568.911,237.77 565.5,241C 567.729,246.36 568.062,251.86 566.5,257.5C 565.596,256.791 565.263,255.791 565.5,254.5C 565.015,248.74 565.015,243.074 565.5,237.5C 568.365,235.625 570.032,232.958 570.5,229.5C 569.297,222.196 568.297,214.863 567.5,207.5C 566.914,207.709 566.414,208.043 566,208.5C 564.038,213.656 563.205,218.989 563.5,224.5C 561.825,227.507 561.159,230.84 561.5,234.5C 560.5,234.5 559.5,234.5 558.5,234.5C 559.881,222.637 563.048,211.304 568,200.5C 568.88,195.821 568.047,191.488 565.5,187.5 Z"/></g>
<g><path style="opacity:0.285" fill="#981f37" d="M 127.5,188.5 C 117.453,197.713 107.953,207.379 99,217.5C 95.0329,223.102 91.8662,229.102 89.5,235.5C 88.6143,234.675 88.281,233.675 88.5,232.5C 91.3037,225.562 95.137,219.229 100,213.5C 108.511,204.142 117.677,195.809 127.5,188.5 Z"/></g>
<g><path style="opacity:1" fill="#8c0420" d="M 494.5,208.5 C 496.5,209.5 498.5,210.5 500.5,211.5C 503.648,216.74 506.148,222.406 508,228.5C 511.183,256.482 511.183,284.482 508,312.5C 506.481,318.018 504.648,323.352 502.5,328.5C 498.987,334.193 495.987,340.193 493.5,346.5C 487.452,357.05 479.452,365.884 469.5,373C 455.228,382.663 439.562,389.163 422.5,392.5C 422.265,391.903 421.765,391.57 421,391.5C 414.523,392.431 408.023,393.265 401.5,394C 407.189,399.879 413.523,404.712 420.5,408.5C 426.948,414.359 433.615,420.026 440.5,425.5C 442.708,423.512 444.375,421.178 445.5,418.5C 445.5,419.5 445.5,420.5 445.5,421.5C 444.895,425.054 443.061,427.721 440,429.5C 439.667,431.833 439.333,434.167 439,436.5C 437,441.167 435,445.833 433,450.5C 427.209,453.313 421.376,455.98 415.5,458.5C 414.78,463.277 412.947,467.61 410,471.5C 409.505,473.473 409.338,475.473 409.5,477.5C 405.335,473.503 401.002,469.67 396.5,466C 395.552,465.517 394.552,465.351 393.5,465.5C 385.191,459.521 377.525,452.855 370.5,445.5C 370.938,445.565 371.272,445.399 371.5,445C 366.684,441.019 362.018,436.852 357.5,432.5C 359.289,431.123 361.289,430.123 363.5,429.5C 364.386,428.675 364.719,427.675 364.5,426.5C 366.681,426.284 368.347,427.117 369.5,429C 375.429,429.233 379.762,426.733 382.5,421.5C 385.125,419.054 387.958,416.721 391,414.5C 391.048,408.661 391.881,402.994 393.5,397.5C 398.096,394.098 403.096,391.264 408.5,389C 411.804,386.727 413.304,383.561 413,379.5C 416.626,376.346 418.459,372.346 418.5,367.5C 419.5,367.5 420.5,367.5 421.5,367.5C 421.5,365.167 421.5,362.833 421.5,360.5C 421.756,357.402 422.422,354.402 423.5,351.5C 423.833,351.5 424.167,351.5 424.5,351.5C 424.434,355.559 424.267,359.559 424,363.5C 428.958,360.591 432.791,356.591 435.5,351.5C 435.678,342.979 435.845,334.312 436,325.5C 438.138,322.531 440.971,320.531 444.5,319.5C 445.386,318.675 445.719,317.675 445.5,316.5C 445.673,311.083 447.173,306.083 450,301.5C 453.528,298.831 456.695,295.831 459.5,292.5C 459.541,294.745 460.375,295.412 462,294.5C 462.854,291.593 462.021,289.26 459.5,287.5C 460.559,285.466 461.559,283.466 462.5,281.5C 464.525,279.804 466.525,278.137 468.5,276.5C 469.75,276.423 470.583,275.756 471,274.5C 470.686,270.79 470.853,267.124 471.5,263.5C 474.654,260.757 477.988,258.257 481.5,256C 488.145,250.233 491.811,243.066 492.5,234.5C 490.77,228.72 490.103,222.72 490.5,216.5C 491.82,213.86 493.153,211.193 494.5,208.5 Z"/></g>
<g><path style="opacity:1" fill="#555557" d="M 390.5,191.5 C 390.838,196.186 391.005,200.853 391,205.5C 389.426,206.984 388.093,208.651 387,210.5C 385.286,217.602 381.786,223.602 376.5,228.5C 373.317,232.865 370.65,237.532 368.5,242.5C 367.834,246.684 367.167,251.018 366.5,255.5C 362.858,257.975 359.358,260.642 356,263.5C 355.505,265.473 355.338,267.473 355.5,269.5C 353.487,276.856 350.487,283.856 346.5,290.5C 341.115,294.393 335.615,298.06 330,301.5C 329.383,306.253 328.383,310.92 327,315.5C 324.002,319.992 320.835,324.325 317.5,328.5C 312.821,333.538 310.654,339.538 311,346.5C 308.991,348.543 306.991,350.543 305,352.5C 304.785,357.915 304.285,363.248 303.5,368.5C 302.234,369.09 300.901,369.59 299.5,370C 298.672,371.992 297.339,373.492 295.5,374.5C 294.5,374.5 293.5,374.5 292.5,374.5C 285.342,377.912 278.342,381.578 271.5,385.5C 269.801,385.34 268.134,385.506 266.5,386C 263.667,388.833 260.833,391.667 258,394.5C 258.108,398.157 258.108,401.823 258,405.5C 251.361,415.973 241.861,421.64 229.5,422.5C 229.196,425.579 228.196,428.413 226.5,431C 222.558,431.993 218.558,432.66 214.5,433C 213.309,433.698 212.309,434.531 211.5,435.5C 208.167,436.5 204.833,437.5 201.5,438.5C 201.995,436.518 202.495,434.518 203,432.5C 206,430.167 209,427.833 212,425.5C 212.94,416.727 217.773,411.727 226.5,410.5C 226.549,407.901 227.549,405.734 229.5,404C 232.711,402.847 236.044,402.18 239.5,402C 244.769,398.391 250.269,395.224 256,392.5C 254.932,385.371 257.266,379.704 263,375.5C 263.48,369.232 262.813,363.232 261,357.5C 265.13,356.219 268.63,353.885 271.5,350.5C 272.17,345.66 274.504,341.827 278.5,339C 283.554,336.611 288.054,333.445 292,329.5C 292.644,325.859 292.144,322.359 290.5,319C 292.533,315.102 294.7,311.268 297,307.5C 299.166,305.879 301.666,305.045 304.5,305C 307.13,301.368 310.13,298.035 313.5,295C 317.716,293.796 322.049,293.13 326.5,293C 329.004,289.768 332.17,287.601 336,286.5C 337.665,280.201 337.998,273.868 337,267.5C 341.507,257.325 348.507,249.325 358,243.5C 359.333,240.167 360.667,236.833 362,233.5C 366.986,228.841 370.986,223.508 374,217.5C 377.312,214.344 380.979,211.677 385,209.5C 388.572,203.928 390.405,197.928 390.5,191.5 Z"/></g>
<g><path style="opacity:0.508" fill="#881c31" d="M 289.5,203.5 C 289.977,207.342 288.644,210.342 285.5,212.5C 285.969,223.015 281.302,230.015 271.5,233.5C 270.702,233.957 270.369,234.624 270.5,235.5C 269.609,234.89 268.609,234.557 267.5,234.5C 266.549,233.081 266.216,231.415 266.5,229.5C 266.307,225.752 267.307,222.418 269.5,219.5C 272.164,216.734 274.997,214.067 278,211.5C 278.791,210.255 279.291,208.922 279.5,207.5C 282.43,205.262 285.763,203.929 289.5,203.5 Z M 281.5,212.5 C 281.665,215.518 281.498,218.518 281,221.5C 278.833,224.333 276.333,226.833 273.5,229C 271.393,229.854 270.059,229.188 269.5,227C 270.196,225.107 271.03,223.274 272,221.5C 275.57,218.822 278.737,215.822 281.5,212.5 Z"/></g>
<g><path style="opacity:0.294" fill="#763d48" d="M 486.5,213.5 C 488.03,214.211 489.363,215.211 490.5,216.5C 490.103,222.72 490.77,228.72 492.5,234.5C 491.833,234.5 491.167,234.5 490.5,234.5C 489.021,229.609 487.854,224.609 487,219.5C 485.869,224.45 484.702,229.45 483.5,234.5C 482.5,234.5 481.5,234.5 480.5,234.5C 482.169,229.378 483.003,224.044 483,218.5C 483.223,216.119 484.39,214.453 486.5,213.5 Z"/></g>
<g><path style="opacity:1" fill="#c2969f" d="M 565.5,237.5 C 564.833,237.167 564.167,236.833 563.5,236.5C 564.09,232.538 564.09,228.538 563.5,224.5C 563.205,218.989 564.038,213.656 566,208.5C 566.414,208.043 566.914,207.709 567.5,207.5C 568.297,214.863 569.297,222.196 570.5,229.5C 570.032,232.958 568.365,235.625 565.5,237.5 Z"/></g>
<g><path style="opacity:1" fill="#555355" d="M 269.5,219.5 C 267.307,222.418 266.307,225.752 266.5,229.5C 265.25,229.577 264.417,230.244 264,231.5C 263.667,234.167 263.333,236.833 263,239.5C 259.962,242.203 257.295,245.203 255,248.5C 256.339,258.16 253.339,266.16 246,272.5C 245.517,273.448 245.351,274.448 245.5,275.5C 241.069,277.215 236.735,279.215 232.5,281.5C 229.224,282.122 227.891,284.122 228.5,287.5C 223.684,294.557 218.684,301.557 213.5,308.5C 208.808,311.355 203.808,313.521 198.5,315C 195.592,322.076 190.592,326.91 183.5,329.5C 183.167,329.5 182.833,329.5 182.5,329.5C 185.062,324.764 188.229,320.431 192,316.5C 192.333,315.167 192.667,313.833 193,312.5C 195.993,309.664 199.493,307.664 203.5,306.5C 207.145,301.021 211.645,296.354 217,292.5C 217.749,289.243 219.416,286.576 222,284.5C 222.333,276.833 222.667,269.167 223,261.5C 228.2,255.32 234.7,251.32 242.5,249.5C 244.884,247.115 247.55,245.115 250.5,243.5C 251.564,241.243 251.064,239.243 249,237.5C 248.333,235.5 248.333,233.5 249,231.5C 252.394,229.941 255.894,228.608 259.5,227.5C 262.583,224.406 265.916,221.739 269.5,219.5 Z"/></g>
<g><path style="opacity:1" fill="#c5c1c2" d="M 376.5,228.5 C 378.344,230.279 379.01,232.612 378.5,235.5C 378.666,240.511 378.499,245.511 378,250.5C 377.283,251.044 376.783,251.711 376.5,252.5C 374.061,253.053 371.727,253.053 369.5,252.5C 368.513,249.232 368.18,245.898 368.5,242.5C 370.65,237.532 373.317,232.865 376.5,228.5 Z"/></g>
<g><path style="opacity:1" fill="#241e20" d="M 563.5,224.5 C 564.09,228.538 564.09,232.538 563.5,236.5C 562.055,239.324 560.889,242.324 560,245.5C 559.879,251.307 559.046,256.974 557.5,262.5C 556.833,262.5 556.5,262.833 556.5,263.5C 545.459,268.576 540.959,277.243 543,289.5C 541.54,293.536 539.873,297.536 538,301.5C 534.604,304.232 531.937,307.565 530,311.5C 526.034,314.464 522.367,317.797 519,321.5C 517.584,329.247 515.918,336.914 514,344.5C 510,349.833 505.333,354.5 500,358.5C 498.438,360.957 497.438,363.624 497,366.5C 490.983,370.008 485.316,374.008 480,378.5C 479.667,384.5 479.333,390.5 479,396.5C 477.048,399.891 475.715,403.558 475,407.5C 471.65,410.173 467.816,411.673 463.5,412C 462.5,413.667 461.5,415.333 460.5,417C 457.136,418.099 453.97,419.599 451,421.5C 446.069,431.848 441.736,442.515 438,453.5C 432.024,457.311 426.024,460.977 420,464.5C 416.977,473.235 413.644,481.901 410,490.5C 407.737,493.886 404.903,496.719 401.5,499C 401.728,499.399 402.062,499.565 402.5,499.5C 400.049,501.59 397.716,503.923 395.5,506.5C 393.833,507.5 392.5,508.833 391.5,510.5C 386.67,514.497 382.336,518.997 378.5,524C 374.598,526.751 370.598,529.251 366.5,531.5C 366.859,529.629 367.859,528.129 369.5,527C 376.598,524.901 381.432,520.401 384,513.5C 390.675,508.482 395.675,502.148 399,494.5C 405.352,490.632 408.852,484.965 409.5,477.5C 409.338,475.473 409.505,473.473 410,471.5C 412.947,467.61 414.78,463.277 415.5,458.5C 421.376,455.98 427.209,453.313 433,450.5C 435,445.833 437,441.167 439,436.5C 439.333,434.167 439.667,431.833 440,429.5C 443.061,427.721 444.895,425.054 445.5,421.5C 448.368,418.048 452.035,415.548 456.5,414C 458.213,412.622 459.547,410.955 460.5,409C 464.805,408.097 468.639,406.263 472,403.5C 472.082,398.507 473.916,394.34 477.5,391C 474.861,385.834 473.861,380.334 474.5,374.5C 479.13,373.043 483.13,370.543 486.5,367C 488.65,365.589 490.984,364.755 493.5,364.5C 494.214,357.421 497.714,352.087 504,348.5C 506.333,345.5 508.667,342.5 511,339.5C 511.333,335.833 511.667,332.167 512,328.5C 513.942,325.128 515.108,321.462 515.5,317.5C 522.225,312.606 528.059,306.939 533,300.5C 538.001,291.492 540.334,281.825 540,271.5C 543.38,266.453 547.714,262.453 553,259.5C 554.622,254.968 555.622,250.301 556,245.5C 559.407,242.6 561.241,238.933 561.5,234.5C 561.159,230.84 561.825,227.507 563.5,224.5 Z"/></g>
<g><path style="opacity:0.192" fill="#661c2b" d="M 441.5,237.5 C 442.946,236.387 444.613,236.22 446.5,237C 448.416,239.09 450.416,240.923 452.5,242.5C 451.902,247.83 450.569,252.83 448.5,257.5C 447.833,257.5 447.167,257.5 446.5,257.5C 447.928,252.626 448.762,247.626 449,242.5C 447.243,239.706 444.743,238.039 441.5,237.5 Z"/></g>
<g><path style="opacity:0.475" fill="#6b2b38" d="M 267.5,234.5 C 268.609,234.557 269.609,234.89 270.5,235.5C 274.649,234.92 278.316,235.586 281.5,237.5C 277.167,237.5 272.833,237.5 268.5,237.5C 265.562,243.9 263.228,250.567 261.5,257.5C 260.167,257.5 259.5,256.833 259.5,255.5C 262.205,248.48 264.871,241.48 267.5,234.5 Z"/></g>
<g><path style="opacity:1" fill="#af9a9e" d="M 368.5,242.5 C 368.18,245.898 368.513,249.232 369.5,252.5C 371.727,253.053 374.061,253.053 376.5,252.5C 372.023,254.813 368.689,258.313 366.5,263C 362.157,264.01 358.99,266.51 357,270.5C 356.617,269.944 356.117,269.611 355.5,269.5C 355.338,267.473 355.505,265.473 356,263.5C 359.358,260.642 362.858,257.975 366.5,255.5C 367.167,251.018 367.834,246.684 368.5,242.5 Z"/></g>
<g><path style="opacity:0.824" fill="#ba7d89" d="M 563.5,236.5 C 564.167,236.833 564.833,237.167 565.5,237.5C 565.015,243.074 565.015,248.74 565.5,254.5C 564.833,258.5 564.167,262.5 563.5,266.5C 563.665,263.482 563.498,260.482 563,257.5C 562.692,256.692 562.192,256.025 561.5,255.5C 560.525,258.152 559.192,260.486 557.5,262.5C 559.046,256.974 559.879,251.307 560,245.5C 560.889,242.324 562.055,239.324 563.5,236.5 Z"/></g>
<g><path style="opacity:0.198" fill="#892338" d="M 480.5,234.5 C 481.5,234.5 482.5,234.5 483.5,234.5C 481.103,237.696 479.936,241.362 480,245.5C 476.652,248.915 474.486,252.582 473.5,256.5C 482.061,251.365 487.728,244.032 490.5,234.5C 491.167,234.5 491.833,234.5 492.5,234.5C 491.811,243.066 488.145,250.233 481.5,256C 477.988,258.257 474.654,260.757 471.5,263.5C 470.853,267.124 470.686,270.79 471,274.5C 470.583,275.756 469.75,276.423 468.5,276.5C 468.5,269.833 468.5,263.167 468.5,256.5C 474.08,250.006 478.08,242.673 480.5,234.5 Z"/></g>
<g><path style="opacity:0.335" fill="#9d495a" d="M 565.5,254.5 C 565.263,255.791 565.596,256.791 566.5,257.5C 567.561,265.798 564.228,271.631 556.5,275C 555.107,276.171 554.273,277.671 554,279.5C 551.693,288.442 549.693,297.442 548,306.5C 546.487,310.381 544.987,314.214 543.5,318C 547.894,326.544 545.727,332.711 537,336.5C 535.05,340.732 533.383,345.066 532,349.5C 530.333,350.833 528.667,352.167 527,353.5C 526.313,360.57 525.48,367.57 524.5,374.5C 524.404,367.748 524.404,360.748 524.5,353.5C 526.498,351.4 528.665,349.4 531,347.5C 531.818,339.513 535.818,333.847 543,330.5C 543.813,326.336 543.313,322.336 541.5,318.5C 544.822,311.528 546.655,304.195 547,296.5C 550.622,289.984 552.622,282.984 553,275.5C 555.251,273.623 557.751,272.123 560.5,271C 561.883,269.729 562.883,268.229 563.5,266.5C 564.167,262.5 564.833,258.5 565.5,254.5 Z"/></g>
<g><path style="opacity:0.937" fill="#b19ba0" d="M 266.5,229.5 C 266.216,231.415 266.549,233.081 267.5,234.5C 264.871,241.48 262.205,248.48 259.5,255.5C 258.675,259.647 258.175,263.981 258,268.5C 254.888,271.396 251.555,274.063 248,276.5C 247.506,278.134 247.34,279.801 247.5,281.5C 247.131,283.441 246.464,285.275 245.5,287C 241.423,289.705 237.09,291.872 232.5,293.5C 233.105,291.974 234.271,290.974 236,290.5C 236.49,289.207 236.657,287.873 236.5,286.5C 235.167,286.5 233.833,286.5 232.5,286.5C 232.5,284.833 232.5,283.167 232.5,281.5C 236.735,279.215 241.069,277.215 245.5,275.5C 245.351,274.448 245.517,273.448 246,272.5C 253.339,266.16 256.339,258.16 255,248.5C 257.295,245.203 259.962,242.203 263,239.5C 263.333,236.833 263.667,234.167 264,231.5C 264.417,230.244 265.25,229.577 266.5,229.5 Z"/></g>
<g><path style="opacity:0.337" fill="#7f4350" d="M 468.5,256.5 C 468.5,263.167 468.5,269.833 468.5,276.5C 466.525,278.137 464.525,279.804 462.5,281.5C 460.833,281.5 459.167,281.5 457.5,281.5C 460.452,279.215 463.118,276.548 465.5,273.5C 462.216,267.039 463.216,261.372 468.5,256.5 Z"/></g>
<g><path style="opacity:0.125" fill="#764a55" d="M 259.5,255.5 C 259.5,256.833 260.167,257.5 261.5,257.5C 260.733,261.415 260.233,265.415 260,269.5C 257.293,272.865 253.96,275.532 250,277.5C 249.51,278.793 249.343,280.127 249.5,281.5C 248.833,281.5 248.167,281.5 247.5,281.5C 247.34,279.801 247.506,278.134 248,276.5C 251.555,274.063 254.888,271.396 258,268.5C 258.175,263.981 258.675,259.647 259.5,255.5 Z"/></g>
<g><path style="opacity:0.149" fill="#892e40" d="M 558.5,234.5 C 559.5,234.5 560.5,234.5 561.5,234.5C 561.241,238.933 559.407,242.6 556,245.5C 555.622,250.301 554.622,254.968 553,259.5C 547.714,262.453 543.38,266.453 540,271.5C 540.334,281.825 538.001,291.492 533,300.5C 528.059,306.939 522.225,312.606 515.5,317.5C 515.108,321.462 513.942,325.128 512,328.5C 511.667,332.167 511.333,335.833 511,339.5C 508.667,342.5 506.333,345.5 504,348.5C 497.714,352.087 494.214,357.421 493.5,364.5C 490.984,364.755 488.65,365.589 486.5,367C 483.13,370.543 479.13,373.043 474.5,374.5C 474.167,374.5 473.833,374.5 473.5,374.5C 478.057,368.945 483.724,364.945 490.5,362.5C 492.724,354.576 497.391,348.242 504.5,343.5C 506,341.167 507.5,338.833 509,336.5C 510.31,329.862 511.643,323.195 513,316.5C 516.674,313.122 520.341,309.789 524,306.5C 524.483,305.552 524.649,304.552 524.5,303.5C 528.375,302.112 531.208,299.445 533,295.5C 534.027,291.392 535.36,287.392 537,283.5C 537.333,279.167 537.667,274.833 538,270.5C 541.413,265.031 545.746,260.364 551,256.5C 552.174,252.954 552.84,249.287 553,245.5C 555.929,242.31 557.762,238.643 558.5,234.5 Z"/></g>
<g><path style="opacity:0.282" fill="#68303c" d="M 446.5,257.5 C 447.167,257.5 447.833,257.5 448.5,257.5C 448.469,260.959 447.802,264.292 446.5,267.5C 443.304,269.928 439.971,272.095 436.5,274C 434.05,278.784 430.55,282.617 426,285.5C 423.068,291.348 420.735,297.348 419,303.5C 415.642,306.358 412.142,309.025 408.5,311.5C 407.477,315.022 405.143,317.189 401.5,318C 398.276,321.727 394.609,324.894 390.5,327.5C 389.2,331.386 387.534,335.052 385.5,338.5C 381.833,337.167 378.167,335.833 374.5,334.5C 377.85,334.665 381.183,334.498 384.5,334C 386.235,331.808 387.402,329.308 388,326.5C 398.56,318.542 408.56,309.875 418,300.5C 419.325,290.497 423.992,282.497 432,276.5C 433.217,271.483 435.884,267.483 440,264.5C 440.085,266.085 440.251,267.418 440.5,268.5C 441.672,268.081 442.672,267.415 443.5,266.5C 444.705,263.55 445.705,260.55 446.5,257.5 Z"/></g>
<g><path style="opacity:0.245" fill="#9c2b41" d="M 615.5,200.5 C 619.074,204.636 621.908,209.303 624,214.5C 627.318,239.049 629.651,263.716 631,288.5C 632.561,285.217 634.727,282.383 637.5,280C 639.92,279.085 641.253,279.918 641.5,282.5C 634.717,301.468 631.051,321.135 630.5,341.5C 629.178,341.67 628.011,341.337 627,340.5C 626.439,327.824 626.605,315.157 627.5,302.5C 627.522,300.2 628.522,299.033 630.5,299C 629.056,307.069 628.056,315.236 627.5,323.5C 627.372,327.02 627.872,330.353 629,333.5C 630.548,316.816 633.715,300.483 638.5,284.5C 638.333,283.833 638.167,283.167 638,282.5C 636.088,284.657 634.421,286.991 633,289.5C 631.915,290.293 630.748,290.96 629.5,291.5C 628.845,264.912 626.012,238.579 621,212.5C 618.38,209.5 616.214,206.166 614.5,202.5C 614.863,201.817 615.196,201.15 615.5,200.5 Z"/></g>
<g><path style="opacity:1" fill="#8c031f" d="M 247.5,281.5 C 248.167,281.5 248.833,281.5 249.5,281.5C 248.353,316.471 248.187,351.471 249,386.5C 249.814,383.493 250.48,380.493 251,377.5C 252.246,374.087 254.413,371.421 257.5,369.5C 257.657,370.873 257.49,372.207 257,373.5C 255.615,374.551 254.615,375.884 254,377.5C 253.667,380.833 253.333,384.167 253,387.5C 245.974,390.597 239.14,394.097 232.5,398C 226.498,397.811 222.498,400.478 220.5,406C 212.057,408.278 207.39,413.778 206.5,422.5C 202.159,423.431 198.659,425.764 196,429.5C 195.623,433.365 194.123,436.699 191.5,439.5C 190.183,404.674 189.516,369.674 189.5,334.5C 192.978,334.816 196.312,334.316 199.5,333C 200.861,331.416 201.528,329.582 201.5,327.5C 206.813,325.34 209.647,321.34 210,315.5C 212.372,313.297 214.539,310.963 216.5,308.5C 219.055,305.73 222.055,303.73 225.5,302.5C 227.603,299.28 229.936,296.28 232.5,293.5C 237.09,291.872 241.423,289.705 245.5,287C 246.464,285.275 247.131,283.441 247.5,281.5 Z"/></g>
<g><path style="opacity:0.208" fill="#842938" d="M 457.5,281.5 C 459.167,281.5 460.833,281.5 462.5,281.5C 461.559,283.466 460.559,285.466 459.5,287.5C 462.021,289.26 462.854,291.593 462,294.5C 460.375,295.412 459.541,294.745 459.5,292.5C 458.253,289.96 457.253,287.294 456.5,284.5C 451.944,286.387 448.278,289.387 445.5,293.5C 445.5,292.5 445.5,291.5 445.5,290.5C 447.77,285.234 451.77,282.234 457.5,281.5 Z"/></g>
<g><path style="opacity:0.349" fill="#763a47" d="M 378.5,235.5 C 378.833,235.5 379.167,235.5 379.5,235.5C 385.833,236.167 392.167,236.833 398.5,237.5C 392.5,237.5 386.5,237.5 380.5,237.5C 380.666,242.179 380.499,246.845 380,251.5C 375.118,254.714 371.285,258.881 368.5,264C 366.336,264.914 364.336,266.081 362.5,267.5C 358.149,276.566 353.649,285.566 349,294.5C 343.264,297.027 337.764,300.027 332.5,303.5C 330.802,313.562 326.469,322.229 319.5,329.5C 319.158,328.662 318.492,328.328 317.5,328.5C 320.835,324.325 324.002,319.992 327,315.5C 328.383,310.92 329.383,306.253 330,301.5C 335.615,298.06 341.115,294.393 346.5,290.5C 350.487,283.856 353.487,276.856 355.5,269.5C 356.117,269.611 356.617,269.944 357,270.5C 358.99,266.51 362.157,264.01 366.5,263C 368.689,258.313 372.023,254.813 376.5,252.5C 376.783,251.711 377.283,251.044 378,250.5C 378.499,245.511 378.666,240.511 378.5,235.5 Z"/></g>
<g><path style="opacity:0.894" fill="#928488" d="M 228.5,287.5 C 228.649,288.552 228.483,289.552 228,290.5C 225.412,294.079 222.912,297.746 220.5,301.5C 222.045,302.452 223.712,302.785 225.5,302.5C 222.055,303.73 219.055,305.73 216.5,308.5C 215.5,308.5 214.5,308.5 213.5,308.5C 218.684,301.557 223.684,294.557 228.5,287.5 Z"/></g>
<g><path style="opacity:0.813" fill="#b3aeb0" d="M 232.5,281.5 C 232.5,283.167 232.5,284.833 232.5,286.5C 233.833,286.5 235.167,286.5 236.5,286.5C 236.657,287.873 236.49,289.207 236,290.5C 234.271,290.974 233.105,291.974 232.5,293.5C 229.936,296.28 227.603,299.28 225.5,302.5C 223.712,302.785 222.045,302.452 220.5,301.5C 222.912,297.746 225.412,294.079 228,290.5C 228.483,289.552 228.649,288.552 228.5,287.5C 227.891,284.122 229.224,282.122 232.5,281.5 Z"/></g>
<g><path style="opacity:0.157" fill="#6b2f3c" d="M 328.5,237.5 C 337.318,236.507 346.318,236.173 355.5,236.5C 354.011,240.153 351.344,242.653 347.5,244C 341.315,249.554 336.482,256.054 333,263.5C 332.958,266.968 333.125,270.468 333.5,274C 334.54,281.09 331.54,285.257 324.5,286.5C 323.618,287.76 322.618,288.926 321.5,290C 312.605,288.898 305.939,292.231 301.5,300C 298.046,301.302 294.712,302.802 291.5,304.5C 289.161,307.678 287.494,311.178 286.5,315C 287.403,317.079 288.069,319.246 288.5,321.5C 284.812,329.015 278.979,334.348 271,337.5C 269.392,342.852 266.558,347.352 262.5,351C 260.866,351.494 259.199,351.66 257.5,351.5C 257.167,351.5 256.833,351.5 256.5,351.5C 259.385,349.969 262.052,347.969 264.5,345.5C 265.641,341.884 267.308,338.551 269.5,335.5C 276.352,332.318 282.019,327.651 286.5,321.5C 284.649,318.375 284.149,315.042 285,311.5C 286.648,308.222 288.481,305.055 290.5,302C 293.726,301.115 296.726,299.781 299.5,298C 304.175,290.01 311.175,286.343 320.5,287C 323.58,284.71 326.747,282.543 330,280.5C 332.087,275.266 331.921,270.099 329.5,265C 334.331,253.508 341.998,244.508 352.5,238C 344.507,237.5 336.507,237.334 328.5,237.5 Z"/></g>
<g><path style="opacity:1" fill="#555457" d="M 500.5,157.5 C 501.665,158.496 502.332,159.829 502.5,161.5C 500.747,164.005 499.247,166.671 498,169.5C 494.667,179.5 491.333,189.5 488,199.5C 487.777,204.25 487.277,208.916 486.5,213.5C 484.39,214.453 483.223,216.119 483,218.5C 483.003,224.044 482.169,229.378 480.5,234.5C 478.08,242.673 474.08,250.006 468.5,256.5C 463.216,261.372 462.216,267.039 465.5,273.5C 463.118,276.548 460.452,279.215 457.5,281.5C 451.77,282.234 447.77,285.234 445.5,290.5C 444.21,291.058 443.377,292.058 443,293.5C 441.757,303.418 437.757,312.085 431,319.5C 429.805,326.559 427.471,333.225 424,339.5C 423.501,343.486 423.334,347.486 423.5,351.5C 422.422,354.402 421.756,357.402 421.5,360.5C 420.521,361.765 419.521,363.099 418.5,364.5C 415.475,365.429 412.642,366.762 410,368.5C 408.684,372.95 407.184,377.284 405.5,381.5C 399.232,384.882 393.399,388.882 388,393.5C 385.45,398.144 383.95,403.144 383.5,408.5C 378.939,410.307 374.272,411.807 369.5,413C 366.577,415.416 364.243,418.25 362.5,421.5C 359.115,423.947 355.615,426.28 352,428.5C 351.501,432.821 351.334,437.154 351.5,441.5C 350.5,442.833 349.5,444.167 348.5,445.5C 346.833,445.5 345.167,445.5 343.5,445.5C 339.17,447.946 335.836,451.446 333.5,456C 331.347,456.099 329.681,456.933 328.5,458.5C 323.849,461.793 318.516,463.293 312.5,463C 309.848,469.209 307.014,475.376 304,481.5C 300.796,484.369 297.963,487.535 295.5,491C 293.608,491.973 291.608,492.64 289.5,493C 284.938,497.731 280.271,502.231 275.5,506.5C 269.925,508.248 264.259,509.581 258.5,510.5C 262.845,506.943 267.012,502.943 271,498.5C 271.426,488.79 276.259,482.624 285.5,480C 288.385,475.872 291.719,472.206 295.5,469C 297.74,468.023 300.073,467.523 302.5,467.5C 304.478,458.948 306.645,450.281 309,441.5C 315.04,435.791 321.374,430.457 328,425.5C 328.746,421.104 329.746,416.77 331,412.5C 334.889,410.942 338.222,408.609 341,405.5C 341.333,404.167 341.667,402.833 342,401.5C 345.742,396.415 350.575,392.915 356.5,391C 357.5,389.333 358.833,388 360.5,387C 367.056,386.257 372.889,383.757 378,379.5C 378.5,373.175 378.666,366.842 378.5,360.5C 382.179,360.637 385.679,359.971 389,358.5C 390.533,349.962 391.866,341.296 393,332.5C 398.209,327.622 403.709,323.122 409.5,319C 410.167,317.667 410.833,316.333 411.5,315C 415.951,312.217 420.117,309.05 424,305.5C 425.4,299.634 427.4,293.967 430,288.5C 436.018,281.817 442.685,275.817 450,270.5C 451.319,266.263 452.319,261.929 453,257.5C 455.837,252.828 457.837,247.828 459,242.5C 461.463,239.035 464.296,235.869 467.5,233C 471.583,231.035 474.416,227.869 476,223.5C 477.234,217.789 479.234,212.456 482,207.5C 482.333,205.167 482.667,202.833 483,200.5C 484.713,199.122 486.047,197.455 487,195.5C 487.333,188.833 487.667,182.167 488,175.5C 490.983,172.187 494.317,169.187 498,166.5C 499.549,163.688 500.382,160.688 500.5,157.5 Z"/></g>
<g><path style="opacity:1" fill="#565557" d="M 556.5,263.5 C 554.645,265.033 552.812,266.7 551,268.5C 550.667,270.167 550.333,271.833 550,273.5C 546.253,278.111 544.586,283.444 545,289.5C 543.216,295.182 541.216,300.849 539,306.5C 533.925,312.313 529.592,318.646 526,325.5C 525.667,328.167 525.333,330.833 525,333.5C 524.74,335.618 523.74,337.284 522,338.5C 521.212,344.22 521.379,349.886 522.5,355.5C 522.192,356.308 521.692,356.975 521,357.5C 522.687,367.121 518.854,372.954 509.5,375C 507.859,376.129 506.859,377.629 506.5,379.5C 504.993,381.289 503.66,383.289 502.5,385.5C 497.649,387.175 493.149,389.509 489,392.5C 485.547,396.145 484.714,400.311 486.5,405C 486.261,407.635 485.594,410.135 484.5,412.5C 483.03,414.151 481.697,415.985 480.5,418C 476.25,420.374 472.084,422.874 468,425.5C 464.848,430.582 462.182,435.916 460,441.5C 459.505,443.473 459.338,445.473 459.5,447.5C 456.447,450.346 452.78,452.179 448.5,453C 445.462,455.703 442.795,458.703 440.5,462C 438.608,462.973 436.608,463.64 434.5,464C 432.859,465.129 431.859,466.629 431.5,468.5C 426.021,473.311 422.688,479.311 421.5,486.5C 417.869,487.608 414.869,489.774 412.5,493C 408.997,495.022 405.663,497.189 402.5,499.5C 402.062,499.565 401.728,499.399 401.5,499C 404.903,496.719 407.737,493.886 410,490.5C 413.644,481.901 416.977,473.235 420,464.5C 426.024,460.977 432.024,457.311 438,453.5C 441.736,442.515 446.069,431.848 451,421.5C 453.97,419.599 457.136,418.099 460.5,417C 461.5,415.333 462.5,413.667 463.5,412C 467.816,411.673 471.65,410.173 475,407.5C 475.715,403.558 477.048,399.891 479,396.5C 479.333,390.5 479.667,384.5 480,378.5C 485.316,374.008 490.983,370.008 497,366.5C 497.438,363.624 498.438,360.957 500,358.5C 505.333,354.5 510,349.833 514,344.5C 515.918,336.914 517.584,329.247 519,321.5C 522.367,317.797 526.034,314.464 530,311.5C 531.937,307.565 534.604,304.232 538,301.5C 539.873,297.536 541.54,293.536 543,289.5C 540.959,277.243 545.459,268.576 556.5,263.5 Z"/></g>
<g><path style="opacity:0.153" fill="#6c3a45" d="M 445.5,290.5 C 445.5,291.5 445.5,292.5 445.5,293.5C 444.008,298.337 442.841,303.337 442,308.5C 438.599,312.853 435.432,317.353 432.5,322C 433.252,322.671 433.586,323.504 433.5,324.5C 431.429,330.252 428.929,335.918 426,341.5C 424.957,344.757 424.457,348.09 424.5,351.5C 424.167,351.5 423.833,351.5 423.5,351.5C 423.334,347.486 423.501,343.486 424,339.5C 427.471,333.225 429.805,326.559 431,319.5C 437.757,312.085 441.757,303.418 443,293.5C 443.377,292.058 444.21,291.058 445.5,290.5 Z"/></g>
<g><path style="opacity:0.133" fill="#872135" d="M 187.5,304.5 C 189.5,304.833 191.5,305.167 193.5,305.5C 189.267,307.2 187.101,310.533 187,315.5C 184.343,318.147 182.177,321.147 180.5,324.5C 178.807,326.027 176.973,327.36 175,328.5C 174.498,331.513 173.998,334.513 173.5,337.5C 167.869,342.63 162.369,347.964 157,353.5C 156.333,354.167 156.333,354.833 157,355.5C 157.75,354.874 158.584,354.374 159.5,354C 164.047,349.607 168.381,344.94 172.5,340C 174.676,339.837 176.509,339.004 178,337.5C 179.243,334.424 181.077,331.757 183.5,329.5C 190.592,326.91 195.592,322.076 198.5,315C 203.808,313.521 208.808,311.355 213.5,308.5C 214.5,308.5 215.5,308.5 216.5,308.5C 214.539,310.963 212.372,313.297 210,315.5C 209.647,321.34 206.813,325.34 201.5,327.5C 199.716,328.72 198.05,328.72 196.5,327.5C 196.44,326.957 196.107,326.624 195.5,326.5C 191.993,329.673 187.993,332.006 183.5,333.5C 180.174,339.834 175.174,344.334 168.5,347C 166.569,353.265 162.402,357.098 156,358.5C 154.129,358.291 152.962,357.291 152.5,355.5C 158.779,350.263 164.279,344.263 169,337.5C 171.004,334.525 172.004,331.192 172,327.5C 178.664,322.518 183.664,316.184 187,308.5C 187.49,307.207 187.657,305.873 187.5,304.5 Z M 205.5,316.5 C 205.461,317.583 205.127,318.583 204.5,319.5C 202.216,320.458 200.216,321.792 198.5,323.5C 198.833,321.5 199.167,319.5 199.5,317.5C 201.565,317.483 203.565,317.15 205.5,316.5 Z"/></g>
<g><path style="opacity:1" fill="#ba9fa4" d="M 563.5,266.5 C 562.883,268.229 561.883,269.729 560.5,271C 557.751,272.123 555.251,273.623 553,275.5C 552.622,282.984 550.622,289.984 547,296.5C 546.655,304.195 544.822,311.528 541.5,318.5C 543.313,322.336 543.813,326.336 543,330.5C 535.818,333.847 531.818,339.513 531,347.5C 528.665,349.4 526.498,351.4 524.5,353.5C 523.286,360.307 522.453,367.307 522,374.5C 516.927,379.337 513.427,385.003 511.5,391.5C 513.048,386.196 514.381,380.862 515.5,375.5C 513.801,375.34 512.134,375.506 510.5,376C 509.295,377.376 507.962,378.542 506.5,379.5C 506.859,377.629 507.859,376.129 509.5,375C 518.854,372.954 522.687,367.121 521,357.5C 521.692,356.975 522.192,356.308 522.5,355.5C 521.379,349.886 521.212,344.22 522,338.5C 523.74,337.284 524.74,335.618 525,333.5C 525.333,330.833 525.667,328.167 526,325.5C 529.592,318.646 533.925,312.313 539,306.5C 541.216,300.849 543.216,295.182 545,289.5C 544.586,283.444 546.253,278.111 550,273.5C 550.333,271.833 550.667,270.167 551,268.5C 552.812,266.7 554.645,265.033 556.5,263.5C 556.5,262.833 556.833,262.5 557.5,262.5C 559.192,260.486 560.525,258.152 561.5,255.5C 562.192,256.025 562.692,256.692 563,257.5C 563.498,260.482 563.665,263.482 563.5,266.5 Z"/></g>
<g><path style="opacity:1" fill="#8c031f" d="M 374.5,334.5 C 378.167,335.833 381.833,337.167 385.5,338.5C 384.891,343.812 384.391,349.146 384,354.5C 383.5,355 383,355.5 382.5,356C 379.574,356.218 376.74,356.718 374,357.5C 374.132,365.42 372.965,373.087 370.5,380.5C 365.307,381.966 359.973,382.633 354.5,382.5C 354.657,383.873 354.49,385.207 354,386.5C 350.217,387.731 346.717,389.565 343.5,392C 339.44,397.269 335.44,402.436 331.5,407.5C 326.238,404.898 321.238,401.898 316.5,398.5C 314.388,397.56 312.388,396.394 310.5,395C 300.839,394.5 291.172,394.334 281.5,394.5C 279.031,393.683 276.365,393.183 273.5,393C 275.569,391.477 277.903,390.643 280.5,390.5C 285.357,388.486 289.857,385.819 294,382.5C 294.496,380.965 294.33,379.465 293.5,378C 293.978,376.697 294.645,375.531 295.5,374.5C 297.339,373.492 298.672,371.992 299.5,370C 300.901,369.59 302.234,369.09 303.5,368.5C 304.75,368.423 305.583,367.756 306,366.5C 306.163,361.315 308.497,357.315 313,354.5C 313.511,352.122 314.178,349.788 315,347.5C 319.051,346.043 323.218,344.709 327.5,343.5C 328.429,342.311 328.762,340.978 328.5,339.5C 330.189,337.672 332.189,336.172 334.5,335C 347.829,334.5 361.163,334.333 374.5,334.5 Z"/></g>
<g><path style="opacity:0.118" fill="#8e294c" d="M 502.5,328.5 C 501.009,335.339 498.009,341.339 493.5,346.5C 495.987,340.193 498.987,334.193 502.5,328.5 Z"/></g>
<g><path style="opacity:0.918" fill="#572a33" d="M 182.5,329.5 C 182.833,329.5 183.167,329.5 183.5,329.5C 181.077,331.757 179.243,334.424 178,337.5C 176.509,339.004 174.676,339.837 172.5,340C 168.381,344.94 164.047,349.607 159.5,354C 158.584,354.374 157.75,354.874 157,355.5C 156.333,354.833 156.333,354.167 157,353.5C 162.369,347.964 167.869,342.63 173.5,337.5C 175.07,338.559 176.403,338.059 177.5,336C 176.501,332.131 178.168,329.965 182.5,329.5 Z"/></g>
<g><path style="opacity:0.451" fill="#82293b" d="M 317.5,328.5 C 318.492,328.328 319.158,328.662 319.5,329.5C 315.148,333.563 313.648,338.563 315,344.5C 319.519,342.613 324.019,340.946 328.5,339.5C 328.762,340.978 328.429,342.311 327.5,343.5C 323.218,344.709 319.051,346.043 315,347.5C 314.178,349.788 313.511,352.122 313,354.5C 308.497,357.315 306.163,361.315 306,366.5C 305.583,367.756 304.75,368.423 303.5,368.5C 304.285,363.248 304.785,357.915 305,352.5C 306.991,350.543 308.991,348.543 311,346.5C 310.654,339.538 312.821,333.538 317.5,328.5 Z"/></g>
<g><path style="opacity:0.055" fill="#722b37" d="M 445.5,316.5 C 445.719,317.675 445.386,318.675 444.5,319.5C 440.971,320.531 438.138,322.531 436,325.5C 435.845,334.312 435.678,342.979 435.5,351.5C 434.837,347.51 434.17,343.51 433.5,339.5C 434.097,334.556 434.097,329.556 433.5,324.5C 436.13,319.884 440.13,317.218 445.5,316.5 Z"/></g>
<g><path style="opacity:0.212" fill="#8b162a" d="M 196.5,327.5 C 198.05,328.72 199.716,328.72 201.5,327.5C 201.528,329.582 200.861,331.416 199.5,333C 196.312,334.316 192.978,334.816 189.5,334.5C 189.516,369.674 190.183,404.674 191.5,439.5C 190.89,440.391 190.557,441.391 190.5,442.5C 189.833,435.5 189.167,428.5 188.5,421.5C 188.812,393.645 188.479,365.812 187.5,338C 187.673,335.979 188.34,334.146 189.5,332.5C 192.469,331.534 194.802,329.867 196.5,327.5 Z"/></g>
<g><path style="opacity:0.243" fill="#87091c" d="M 256.5,351.5 C 256.833,351.5 257.167,351.5 257.5,351.5C 256.488,355.797 256.488,360.13 257.5,364.5C 255.526,362.048 254.192,359.215 253.5,356C 253.522,353.817 254.522,352.317 256.5,351.5 Z"/></g>
<g><path style="opacity:1" fill="#c5c3c4" d="M 511.5,391.5 C 510.688,393.945 509.688,396.278 508.5,398.5C 506.407,399.045 504.407,399.878 502.5,401C 499.449,404.299 496.782,407.799 494.5,411.5C 491.375,412.597 488.208,413.597 485,414.5C 484.536,413.906 484.369,413.239 484.5,412.5C 485.594,410.135 486.261,407.635 486.5,405C 484.714,400.311 485.547,396.145 489,392.5C 493.149,389.509 497.649,387.175 502.5,385.5C 503.66,383.289 504.993,381.289 506.5,379.5C 507.962,378.542 509.295,377.376 510.5,376C 512.134,375.506 513.801,375.34 515.5,375.5C 514.381,380.862 513.048,386.196 511.5,391.5 Z"/></g>
<g><path style="opacity:0.357" fill="#a16c75" d="M 524.5,353.5 C 524.404,360.748 524.404,367.748 524.5,374.5C 518.863,380.104 515.03,386.77 513,394.5C 511.951,396.384 510.451,397.718 508.5,398.5C 509.688,396.278 510.688,393.945 511.5,391.5C 513.427,385.003 516.927,379.337 522,374.5C 522.453,367.307 523.286,360.307 524.5,353.5 Z"/></g>
<g><path style="opacity:0.425" fill="#a4767f" d="M 292.5,374.5 C 292.5,381.833 288.833,385.5 281.5,385.5C 281.634,387.292 281.301,388.958 280.5,390.5C 277.903,390.643 275.569,391.477 273.5,393C 276.365,393.183 279.031,393.683 281.5,394.5C 278.022,394.184 274.688,394.684 271.5,396C 265.882,402.062 261.382,408.896 258,416.5C 256.5,417.333 255.333,418.5 254.5,420C 252.618,420.198 250.952,420.698 249.5,421.5C 248.833,421.5 248.167,421.5 247.5,421.5C 248.655,419.175 250.655,418.008 253.5,418C 257.742,412.599 261.242,406.765 264,400.5C 266.667,397.833 269.333,395.167 272,392.5C 272.703,390.071 272.537,387.738 271.5,385.5C 278.342,381.578 285.342,377.912 292.5,374.5 Z"/></g>
<g><path style="opacity:0.722" fill="#a04b5c" d="M 292.5,374.5 C 293.5,374.5 294.5,374.5 295.5,374.5C 294.645,375.531 293.978,376.697 293.5,378C 294.33,379.465 294.496,380.965 294,382.5C 289.857,385.819 285.357,388.486 280.5,390.5C 281.301,388.958 281.634,387.292 281.5,385.5C 288.833,385.5 292.5,381.833 292.5,374.5 Z"/></g>
<g><path style="opacity:0.231" fill="#6d3844" d="M 421.5,360.5 C 421.5,362.833 421.5,365.167 421.5,367.5C 420.5,367.5 419.5,367.5 418.5,367.5C 418.459,372.346 416.626,376.346 413,379.5C 413.304,383.561 411.804,386.727 408.5,389C 403.096,391.264 398.096,394.098 393.5,397.5C 392.604,398.506 391.938,398.506 391.5,397.5C 391.5,396.5 391.5,395.5 391.5,394.5C 388.354,398.487 386.521,403.153 386,408.5C 381.523,412.217 376.357,414.384 370.5,415C 368.946,417.287 367.279,419.454 365.5,421.5C 364.5,421.5 363.5,421.5 362.5,421.5C 364.243,418.25 366.577,415.416 369.5,413C 374.272,411.807 378.939,410.307 383.5,408.5C 383.95,403.144 385.45,398.144 388,393.5C 393.399,388.882 399.232,384.882 405.5,381.5C 407.184,377.284 408.684,372.95 410,368.5C 412.642,366.762 415.475,365.429 418.5,364.5C 419.521,363.099 420.521,361.765 421.5,360.5 Z M 400.5,388.5 C 400.027,389.906 399.027,390.573 397.5,390.5C 397.973,389.094 398.973,388.427 400.5,388.5 Z M 400.5,388.5 C 403.095,386.184 405.761,383.851 408.5,381.5C 409.82,377.886 410.987,374.22 412,370.5C 415.363,366.833 416.363,367.833 415,373.5C 412.771,376.5 411.104,379.833 410,383.5C 407.715,386.892 404.548,388.559 400.5,388.5 Z M 391.5,394.5 C 391.511,392.314 392.511,391.481 394.5,392C 393.922,393.417 392.922,394.25 391.5,394.5 Z"/></g>
<g><path style="opacity:0.055" fill="#7e2f3e" d="M 422.5,392.5 C 416.833,393.405 411.167,394.405 405.5,395.5C 410.84,399.512 415.84,403.845 420.5,408.5C 413.523,404.712 407.189,399.879 401.5,394C 408.023,393.265 414.523,392.431 421,391.5C 421.765,391.57 422.265,391.903 422.5,392.5 Z"/></g>
<g><path style="opacity:0.153" fill="#7d2d3f" d="M 391.5,397.5 C 391.938,398.506 392.604,398.506 393.5,397.5C 391.881,402.994 391.048,408.661 391,414.5C 387.958,416.721 385.125,419.054 382.5,421.5C 383.293,417.536 385.46,414.536 389,412.5C 389.437,407.294 390.27,402.294 391.5,397.5 Z"/></g>
<g><path style="opacity:0.255" fill="#7b3e4a" d="M 473.5,374.5 C 473.833,374.5 474.167,374.5 474.5,374.5C 473.861,380.334 474.861,385.834 477.5,391C 473.916,394.34 472.082,398.507 472,403.5C 468.639,406.263 464.805,408.097 460.5,409C 459.547,410.955 458.213,412.622 456.5,414C 452.035,415.548 448.368,418.048 445.5,421.5C 445.5,420.5 445.5,419.5 445.5,418.5C 447.88,415.793 450.88,413.793 454.5,412.5C 456.358,410.476 458.025,408.309 459.5,406C 467.651,405.849 471.817,401.683 472,393.5C 472.827,392.338 473.66,391.171 474.5,390C 472.522,384.775 472.188,379.608 473.5,374.5 Z"/></g>
<g><path style="opacity:0.229" fill="#952135" d="M 93.5,421.5 C 88.6504,411.069 86.8171,400.069 88,388.5C 90.0969,387.009 92.4303,386.009 95,385.5C 95.3876,382.151 95.2209,378.817 94.5,375.5C 94.4346,375.062 94.6012,374.728 95,374.5C 96.5339,378.711 96.8673,383.044 96,387.5C 94.5557,389.155 92.7224,389.822 90.5,389.5C 89.6925,399.843 91.0259,409.843 94.5,419.5C 94.4573,420.416 94.1239,421.083 93.5,421.5 Z"/></g>
<g><path style="opacity:1" fill="#b1969c" d="M 271.5,385.5 C 272.537,387.738 272.703,390.071 272,392.5C 269.333,395.167 266.667,397.833 264,400.5C 261.242,406.765 257.742,412.599 253.5,418C 250.655,418.008 248.655,419.175 247.5,421.5C 245.614,422.361 243.78,423.361 242,424.5C 240.988,427.861 239.488,431.028 237.5,434C 233.787,434.405 230.121,434.405 226.5,434C 223.417,435.139 220.417,436.472 217.5,438C 216.117,439.271 215.117,440.771 214.5,442.5C 212.833,442.5 211.167,442.5 209.5,442.5C 209.5,441.167 209.5,439.833 209.5,438.5C 210.167,437.5 210.833,436.5 211.5,435.5C 212.309,434.531 213.309,433.698 214.5,433C 218.558,432.66 222.558,431.993 226.5,431C 228.196,428.413 229.196,425.579 229.5,422.5C 241.861,421.64 251.361,415.973 258,405.5C 258.108,401.823 258.108,398.157 258,394.5C 260.833,391.667 263.667,388.833 266.5,386C 268.134,385.506 269.801,385.34 271.5,385.5 Z"/></g>
<g><path style="opacity:0.29" fill="#622f3a" d="M 316.5,398.5 C 321.238,401.898 326.238,404.898 331.5,407.5C 329.24,408.363 327.74,410.03 327,412.5C 327.193,417.352 325.86,421.685 323,425.5C 317.279,430.221 311.279,434.554 305,438.5C 304.56,440.866 304.06,443.199 303.5,445.5C 302.833,445.5 302.167,445.5 301.5,445.5C 301.998,442.513 302.498,439.513 303,436.5C 311.238,431.89 318.238,425.89 324,418.5C 324.026,414.892 324.859,411.558 326.5,408.5C 323.133,405.16 319.8,401.827 316.5,398.5 Z"/></g>
<g><path style="opacity:0.29" fill="#91253a" d="M 362.5,421.5 C 363.5,421.5 364.5,421.5 365.5,421.5C 364.708,423.257 363.375,424.591 361.5,425.5C 362.636,425.964 363.636,426.298 364.5,426.5C 364.719,427.675 364.386,428.675 363.5,429.5C 361.289,430.123 359.289,431.123 357.5,432.5C 362.018,436.852 366.684,441.019 371.5,445C 371.272,445.399 370.938,445.565 370.5,445.5C 365.54,441.712 360.707,437.712 356,433.5C 355.513,436.801 354.013,439.467 351.5,441.5C 351.334,437.154 351.501,432.821 352,428.5C 355.615,426.28 359.115,423.947 362.5,421.5 Z"/></g>
<g><path style="opacity:0.129" fill="#904f5b" d="M 508.5,398.5 C 506.781,401.301 504.281,403.301 501,404.5C 498.746,410.374 495.079,415.041 490,418.5C 488.885,421.895 487.385,425.061 485.5,428C 480.832,428.73 476.665,430.564 473,433.5C 471.959,437.906 471.126,442.239 470.5,446.5C 470.5,445.833 470.167,445.5 469.5,445.5C 470.131,441.196 470.631,436.863 471,432.5C 474.783,429.902 478.95,428.068 483.5,427C 486.305,421.223 489.972,416.057 494.5,411.5C 496.782,407.799 499.449,404.299 502.5,401C 504.407,399.878 506.407,399.045 508.5,398.5 Z"/></g>
<g><path style="opacity:0.213" fill="#572932" d="M 188.5,421.5 C 189.167,428.5 189.833,435.5 190.5,442.5C 190.737,443.791 190.404,444.791 189.5,445.5C 188.833,445.5 188.167,445.5 187.5,445.5C 188.276,437.525 188.61,429.525 188.5,421.5 Z"/></g>
<g><path style="opacity:1" fill="#b59da2" d="M 494.5,411.5 C 489.972,416.057 486.305,421.223 483.5,427C 478.95,428.068 474.783,429.902 471,432.5C 470.631,436.863 470.131,441.196 469.5,445.5C 468.855,446.812 467.855,447.812 466.5,448.5C 464.253,447.626 461.92,447.292 459.5,447.5C 459.338,445.473 459.505,443.473 460,441.5C 462.182,435.916 464.848,430.582 468,425.5C 472.084,422.874 476.25,420.374 480.5,418C 481.697,415.985 483.03,414.151 484.5,412.5C 484.369,413.239 484.536,413.906 485,414.5C 488.208,413.597 491.375,412.597 494.5,411.5 Z"/></g>
<g><path style="opacity:1" fill="#861126" d="M 211.5,435.5 C 210.833,436.5 210.167,437.5 209.5,438.5C 206.047,440.739 202.714,443.239 199.5,446C 198.552,446.483 197.552,446.649 196.5,446.5C 196.652,442.859 198.318,440.193 201.5,438.5C 204.833,437.5 208.167,436.5 211.5,435.5 Z"/></g>
<g><path style="opacity:0.318" fill="#a43b4e" d="M 611.5,459.5 C 613.49,454.519 614.99,449.519 616,444.5C 611.331,448.337 606.831,452.337 602.5,456.5C 606.204,451.285 610.538,446.452 615.5,442C 616.448,441.517 617.448,441.351 618.5,441.5C 618.662,443.527 618.495,445.527 618,447.5C 616.096,451.778 613.929,455.778 611.5,459.5 Z"/></g>
<g><path style="opacity:1" fill="#a7707b" d="M 209.5,438.5 C 209.5,439.833 209.5,441.167 209.5,442.5C 211.167,442.5 212.833,442.5 214.5,442.5C 213.571,443.315 212.571,444.148 211.5,445C 208.044,445.18 204.711,445.847 201.5,447C 199.818,449.69 198.318,452.523 197,455.5C 195.67,456.582 194.17,457.249 192.5,457.5C 192.074,456.472 192.074,455.139 192.5,453.5C 190.901,453.768 189.568,453.434 188.5,452.5C 191.961,451.449 194.627,449.449 196.5,446.5C 197.552,446.649 198.552,446.483 199.5,446C 202.714,443.239 206.047,440.739 209.5,438.5 Z"/></g>
<g><path style="opacity:0.114" fill="#793141" d="M 469.5,445.5 C 470.167,445.5 470.5,445.833 470.5,446.5C 470.461,447.583 470.127,448.583 469.5,449.5C 470.63,450.622 471.297,451.956 471.5,453.5C 469.983,453.489 468.816,452.823 468,451.5C 463.533,456.968 458.7,462.135 453.5,467C 451.975,468.009 450.308,468.509 448.5,468.5C 446.833,468.5 445.167,468.5 443.5,468.5C 451.075,466.763 456.075,462.096 458.5,454.5C 455.491,453.977 452.491,454.477 449.5,456C 445.103,461.587 439.77,465.753 433.5,468.5C 432.833,468.5 432.167,468.5 431.5,468.5C 431.859,466.629 432.859,465.129 434.5,464C 436.608,463.64 438.608,462.973 440.5,462C 442.795,458.703 445.462,455.703 448.5,453C 452.78,452.179 456.447,450.346 459.5,447.5C 461.92,447.292 464.253,447.626 466.5,448.5C 467.855,447.812 468.855,446.812 469.5,445.5 Z"/></g>
<g><path style="opacity:1" fill="#8d031f" d="M 471.5,453.5 C 480.571,462.217 489.904,470.717 499.5,479C 500.448,479.483 501.448,479.649 502.5,479.5C 507.16,483.16 511.493,487.16 515.5,491.5C 516.96,493.463 518.627,495.296 520.5,497C 491.167,497.667 461.833,497.667 432.5,497C 430.922,495.906 429.255,495.072 427.5,494.5C 425.29,494.106 423.957,492.773 423.5,490.5C 425.314,490.228 427.314,490.061 429.5,490C 430,489.5 430.5,489 431,488.5C 431.333,485.833 431.667,483.167 432,480.5C 434.392,477.532 436.892,474.699 439.5,472C 442.662,470.973 445.662,469.806 448.5,468.5C 450.308,468.509 451.975,468.009 453.5,467C 458.7,462.135 463.533,456.968 468,451.5C 468.816,452.823 469.983,453.489 471.5,453.5 Z"/></g>
<g><path style="opacity:0.804" fill="#b18e95" d="M 343.5,445.5 C 342.937,449.971 341.77,454.304 340,458.5C 338.961,459.71 337.794,460.71 336.5,461.5C 336.5,460.167 336.5,458.833 336.5,457.5C 333.873,458.092 331.206,458.425 328.5,458.5C 329.681,456.933 331.347,456.099 333.5,456C 335.836,451.446 339.17,447.946 343.5,445.5 Z"/></g>
<g><path style="opacity:1" fill="#ba9aa1" d="M 336.5,461.5 C 333.845,462.001 331.678,463.334 330,465.5C 329.125,468.628 327.958,471.628 326.5,474.5C 322.221,475.274 317.887,475.774 313.5,476C 306.71,481.95 301.71,489.117 298.5,497.5C 295.662,499.633 292.495,500.966 289,501.5C 288.763,511.098 284.263,514.265 275.5,511C 274.272,509.51 274.272,508.01 275.5,506.5C 280.271,502.231 284.938,497.731 289.5,493C 291.608,492.64 293.608,491.973 295.5,491C 297.963,487.535 300.796,484.369 304,481.5C 307.014,475.376 309.848,469.209 312.5,463C 318.516,463.293 323.849,461.793 328.5,458.5C 331.206,458.425 333.873,458.092 336.5,457.5C 336.5,458.833 336.5,460.167 336.5,461.5 Z"/></g>
<g><path style="opacity:0.043" fill="#992a40" d="M 471.5,453.5 C 482.358,461.445 492.691,470.112 502.5,479.5C 501.448,479.649 500.448,479.483 499.5,479C 489.904,470.717 480.571,462.217 471.5,453.5 Z"/></g>
<g><path style="opacity:0.249" fill="#84424f" d="M 301.5,445.5 C 302.167,445.5 302.833,445.5 303.5,445.5C 303.665,448.518 303.498,451.518 303,454.5C 301.125,457.588 299.792,460.921 299,464.5C 292.215,465.926 287.048,469.759 283.5,476C 274.116,478.706 269.283,484.873 269,494.5C 264.935,498.395 261.102,502.395 257.5,506.5C 257.5,505.5 257.5,504.5 257.5,503.5C 259.412,500.081 261.912,497.081 265,494.5C 266.818,490.23 268.485,485.897 270,481.5C 273.717,478.817 277.551,476.317 281.5,474C 285.14,468.241 290.14,464.075 296.5,461.5C 299.388,456.505 301.055,451.172 301.5,445.5 Z"/></g>
<g><path style="opacity:0.778" fill="#9f4d5d" d="M 159.5,474.5 C 161.288,474.215 162.955,474.548 164.5,475.5C 163.376,476.914 162.376,478.414 161.5,480C 157.907,481.712 154.407,483.546 151,485.5C 150.167,485.167 149.333,484.833 148.5,484.5C 152.388,481.393 156.055,478.06 159.5,474.5 Z"/></g>
<g><path style="opacity:0.478" fill="#8f2034" d="M 431.5,468.5 C 432.167,468.5 432.833,468.5 433.5,468.5C 431.515,472.456 429.015,476.122 426,479.5C 425.713,481.891 425.213,484.224 424.5,486.5C 424.833,486.833 425.167,487.167 425.5,487.5C 426.913,483.747 428.747,480.08 431,476.5C 434.383,472.224 438.549,469.557 443.5,468.5C 445.167,468.5 446.833,468.5 448.5,468.5C 445.662,469.806 442.662,470.973 439.5,472C 436.892,474.699 434.392,477.532 432,480.5C 431.667,483.167 431.333,485.833 431,488.5C 430.5,489 430,489.5 429.5,490C 427.314,490.061 425.314,490.228 423.5,490.5C 422.508,490.672 421.842,490.338 421.5,489.5C 421.5,488.5 421.5,487.5 421.5,486.5C 422.688,479.311 426.021,473.311 431.5,468.5 Z"/></g>
<g><path style="opacity:0.173" fill="#912237" d="M 187.5,445.5 C 188.167,445.5 188.833,445.5 189.5,445.5C 189.039,447.55 188.372,449.55 187.5,451.5C 187.624,452.107 187.957,452.44 188.5,452.5C 189.568,453.434 190.901,453.768 192.5,453.5C 192.074,455.139 192.074,456.472 192.5,457.5C 191.791,458.404 190.791,458.737 189.5,458.5C 189.667,471.504 189.5,484.504 189,497.5C 183.602,493.604 179.102,488.937 175.5,483.5C 179.509,487.169 183.509,490.835 187.5,494.5C 188.92,481.79 188.753,469.123 187,456.5C 184.949,458.524 182.616,460.19 180,461.5C 177.26,468.02 172.427,470.687 165.5,469.5C 169.477,463.033 173.81,456.866 178.5,451C 183.098,451.595 186.098,449.761 187.5,445.5 Z"/></g>
<g><path style="opacity:1" fill="#26191c" d="M 178.5,454.5 C 180.199,454.34 181.866,454.506 183.5,455C 179.978,457.189 177.145,460.022 175,463.5C 174.5,463.167 174,462.833 173.5,462.5C 174.677,459.469 176.344,456.802 178.5,454.5 Z"/></g>
<g><path style="opacity:0.325" fill="#7f2d3c" d="M 421.5,486.5 C 421.5,487.5 421.5,488.5 421.5,489.5C 413.848,495.481 406.181,501.481 398.5,507.5C 397.609,506.89 396.609,506.557 395.5,506.5C 397.716,503.923 400.049,501.59 402.5,499.5C 405.663,497.189 408.997,495.022 412.5,493C 414.869,489.774 417.869,487.608 421.5,486.5 Z"/></g>
<g><path style="opacity:0.696" fill="#922e3d" d="M 248.5,435.5 C 248.667,456.503 248.5,477.503 248,498.5C 243.599,499.467 239.099,499.8 234.5,499.5C 238.029,497.577 242.029,496.911 246.5,497.5C 246.586,476.656 247.253,455.989 248.5,435.5 Z"/></g>
<g><path style="opacity:0.573" fill="#911e30" d="M 515.5,491.5 C 517.764,492.581 519.931,493.915 522,495.5C 522.49,496.793 522.657,498.127 522.5,499.5C 492.831,499.667 463.165,499.5 433.5,499C 430.894,498.208 428.894,496.708 427.5,494.5C 429.255,495.072 430.922,495.906 432.5,497C 461.833,497.667 491.167,497.667 520.5,497C 518.627,495.296 516.96,493.463 515.5,491.5 Z"/></g>
<g><path style="opacity:0.388" fill="#8e3044" d="M 393.5,465.5 C 394.552,465.351 395.552,465.517 396.5,466C 401.002,469.67 405.335,473.503 409.5,477.5C 408.852,484.965 405.352,490.632 399,494.5C 395.675,502.148 390.675,508.482 384,513.5C 381.432,520.401 376.598,524.901 369.5,527C 367.859,528.129 366.859,529.629 366.5,531.5C 365.167,532.5 363.833,533.5 362.5,534.5C 362.5,533.833 362.5,533.167 362.5,532.5C 365.074,527.43 369.074,523.93 374.5,522C 378.52,518.989 381.353,515.156 383,510.5C 389.133,505.693 393.8,499.693 397,492.5C 403.12,489.237 406.453,484.237 407,477.5C 402.306,473.635 397.806,469.635 393.5,465.5 Z"/></g>
<g><path style="opacity:0.412" fill="#953c4c" d="M 257.5,503.5 C 257.5,504.5 257.5,505.5 257.5,506.5C 255.805,507.011 254.139,507.678 252.5,508.5C 248.086,518.42 240.753,524.92 230.5,528C 229.177,528.816 228.511,529.983 228.5,531.5C 227.833,531.833 227.167,532.167 226.5,532.5C 224.519,531.895 224.185,530.895 225.5,529.5C 228.327,526.086 231.994,524.253 236.5,524C 242.79,518.509 248.123,512.176 252.5,505C 254.247,504.648 255.914,504.148 257.5,503.5 Z"/></g>
<g><path style="opacity:0.357" fill="#9b5663" d="M 343.5,445.5 C 345.167,445.5 346.833,445.5 348.5,445.5C 345.819,449.528 343.653,453.861 342,458.5C 338.916,462.254 335.25,465.254 331,467.5C 331.135,470.938 329.968,473.772 327.5,476C 323.833,476.333 320.167,476.667 316.5,477C 315.167,478 313.833,479 312.5,480C 309.93,484.294 306.763,488.127 303,491.5C 302.027,493.392 301.36,495.392 301,497.5C 297.639,500.345 293.972,502.679 290,504.5C 288.913,513.091 284.079,517.091 275.5,516.5C 268.684,513.828 262.184,514.494 256,518.5C 254.215,522.553 251.715,526.053 248.5,529C 243.612,530.897 238.945,533.063 234.5,535.5C 233.652,534.375 232.652,534.375 231.5,535.5C 230.796,533.656 229.463,533.156 227.5,534C 222.955,537.384 218.289,540.55 213.5,543.5C 214.702,541.608 216.035,539.774 217.5,538C 220.98,536.803 223.98,534.969 226.5,532.5C 227.167,532.167 227.833,531.833 228.5,531.5C 228.56,532.043 228.893,532.376 229.5,532.5C 230.287,531.758 230.953,530.925 231.5,530C 237.267,527.913 242.934,525.58 248.5,523C 251.787,519.707 254.287,515.873 256,511.5C 256.671,510.748 257.504,510.414 258.5,510.5C 264.259,509.581 269.925,508.248 275.5,506.5C 274.272,508.01 274.272,509.51 275.5,511C 284.263,514.265 288.763,511.098 289,501.5C 292.495,500.966 295.662,499.633 298.5,497.5C 301.71,489.117 306.71,481.95 313.5,476C 317.887,475.774 322.221,475.274 326.5,474.5C 327.958,471.628 329.125,468.628 330,465.5C 331.678,463.334 333.845,462.001 336.5,461.5C 337.794,460.71 338.961,459.71 340,458.5C 341.77,454.304 342.937,449.971 343.5,445.5 Z"/></g>
<g><path style="opacity:0.298" fill="#a02e44" d="M 234.5,535.5 C 233.882,537.664 234.882,539.33 237.5,540.5C 242.763,539.412 247.763,537.746 252.5,535.5C 252.664,538.187 252.497,540.854 252,543.5C 251.617,544.056 251.117,544.389 250.5,544.5C 251.167,542.181 251.334,539.847 251,537.5C 247.37,540.293 243.203,541.96 238.5,542.5C 235.689,542.026 233.355,540.693 231.5,538.5C 231.5,537.5 231.5,536.5 231.5,535.5C 232.652,534.375 233.652,534.375 234.5,535.5 Z"/></g>
<g><path style="opacity:0.306" fill="#a84256" d="M 395.5,506.5 C 396.609,506.557 397.609,506.89 398.5,507.5C 396.65,513.242 392.817,517.909 387,521.5C 385.102,525.069 382.935,528.402 380.5,531.5C 374.295,534.859 367.961,538.026 361.5,541C 355.564,546.461 348.897,550.628 341.5,553.5C 337.557,556.146 333.557,558.813 329.5,561.5C 329.167,561.333 328.833,561.167 328.5,561C 331.202,558.005 334.202,555.505 337.5,553.5C 337.414,552.504 337.748,551.671 338.5,551C 346.71,545.067 354.71,538.9 362.5,532.5C 362.5,533.167 362.5,533.833 362.5,534.5C 357.071,538.752 351.738,543.252 346.5,548C 351.781,547.179 356.114,544.512 359.5,540C 366.637,537.111 372.637,532.778 377.5,527C 378.899,526.405 380.232,526.572 381.5,527.5C 383.635,522.223 386.968,517.889 391.5,514.5C 392.705,513.005 392.705,511.672 391.5,510.5C 392.5,508.833 393.833,507.5 395.5,506.5 Z"/></g>
<g><path style="opacity:0.99" fill="#ba828d" d="M 391.5,510.5 C 392.705,511.672 392.705,513.005 391.5,514.5C 386.968,517.889 383.635,522.223 381.5,527.5C 380.232,526.572 378.899,526.405 377.5,527C 372.637,532.778 366.637,537.111 359.5,540C 356.114,544.512 351.781,547.179 346.5,548C 351.738,543.252 357.071,538.752 362.5,534.5C 363.833,533.5 365.167,532.5 366.5,531.5C 370.598,529.251 374.598,526.751 378.5,524C 382.336,518.997 386.67,514.497 391.5,510.5 Z"/></g>
<g><path style="opacity:1" fill="#ba808c" d="M 231.5,535.5 C 231.5,536.5 231.5,537.5 231.5,538.5C 231.586,539.496 231.252,540.329 230.5,541C 227.5,541.333 224.5,541.667 221.5,542C 220.687,543.803 219.52,545.303 218,546.5C 214.855,547.411 211.688,548.245 208.5,549C 205.952,551.442 202.952,553.108 199.5,554C 197.176,558.214 193.843,559.381 189.5,557.5C 196.3,550.767 204.3,546.1 213.5,543.5C 218.289,540.55 222.955,537.384 227.5,534C 229.463,533.156 230.796,533.656 231.5,535.5 Z"/></g>
<g><path style="opacity:0.133" fill="#9e2a40" d="M 150.5,549.5 C 151.239,549.369 151.906,549.536 152.5,550C 154.333,552.5 156.167,555 158,557.5C 160.795,559.293 163.295,561.46 165.5,564C 170.388,565.947 175.054,568.114 179.5,570.5C 166.496,568.17 156.83,561.17 150.5,549.5 Z"/></g>
<g><path style="opacity:0.569" fill="#9c243c" d="M 337.5,553.5 C 334.202,555.505 331.202,558.005 328.5,561C 328.833,561.167 329.167,561.333 329.5,561.5C 333.557,558.813 337.557,556.146 341.5,553.5C 340.04,555.463 338.373,557.296 336.5,559C 332.911,560.914 329.578,563.248 326.5,566C 332.746,567.541 339.079,568.541 345.5,569C 351.844,570.769 358.177,572.603 364.5,574.5C 377.132,571.166 389.798,568.833 402.5,567.5C 404.735,568.248 404.402,569.081 401.5,570C 389.184,570.902 377.018,572.735 365,575.5C 336.118,569.161 306.951,564.661 277.5,562C 276.058,561.623 275.058,560.79 274.5,559.5C 289.153,561.469 303.82,563.469 318.5,565.5C 319.5,565.333 320.5,565.167 321.5,565C 325.597,559.397 330.93,555.564 337.5,553.5 Z"/></g>
<g><path style="opacity:0.217" fill="#a42c45" d="M 221.5,582.5 C 219.692,582.509 218.025,582.009 216.5,581C 212.173,577.501 207.506,574.501 202.5,572C 197.511,571.501 192.511,571.334 187.5,571.5C 189.571,570.191 192.071,569.525 195,569.5C 197.5,569.667 200,569.833 202.5,570C 209.28,573.637 215.613,577.803 221.5,582.5 Z"/></g>
<g><path style="opacity:0.447" fill="#a0243c" d="M 418.5,626.5 C 409.383,621.23 399.549,619.563 389,621.5C 378.273,619.342 367.44,617.842 356.5,617C 344.468,616.614 332.468,617.114 320.5,618.5C 324.044,616.732 328.044,615.898 332.5,616C 351.429,614.462 370.095,615.962 388.5,620.5C 399.109,618.119 409.109,619.619 418.5,625C 419.738,625.69 419.738,626.19 418.5,626.5 Z"/></g>
</svg>
